<svg width="524" height="84" viewBox="0 0 524 84" fill="none" xmlns="http://www.w3.org/2000/svg">
<path d="M69 23L444 23" stroke="#A0AEC0" stroke-width="3" stroke-linecap="round"/>
<path d="M47.0462 28V19.136L45.2062 19.568V18L47.9102 16.8H49.1742V28H47.0462Z" fill="#1A202C"/>
<circle cx="47.5" cy="22" r="21" stroke="#1A202C" stroke-width="2"/>
<path d="M5.79688 67.7891L2.85938 77H0.140625L4.35156 65.625H6.07031L5.79688 67.7891ZM8.23438 77L5.28906 67.7891L4.98438 65.625H6.72656L10.9531 77H8.23438ZM8.10938 72.7656V74.7344H2.17969V72.7656H8.10938ZM17.3016 68.5469H19.5203V76.6953C19.5203 77.4714 19.3432 78.1302 18.9891 78.6719C18.6401 79.2135 18.1531 79.625 17.5281 79.9062C16.9031 80.1875 16.1714 80.3281 15.3328 80.3281C14.9682 80.3281 14.588 80.2786 14.1922 80.1797C13.7964 80.0859 13.424 79.9427 13.075 79.75C12.726 79.5625 12.4344 79.3229 12.2 79.0312L13.2391 77.5938C13.4786 77.8646 13.7651 78.0833 14.0984 78.25C14.4318 78.4219 14.812 78.5078 15.2391 78.5078C15.6297 78.5078 15.9604 78.4375 16.2312 78.2969C16.5021 78.1562 16.7078 77.9505 16.8484 77.6797C16.9943 77.4089 17.0672 77.0807 17.0672 76.6953V70.5234L17.3016 68.5469ZM11.6531 72.875V72.7109C11.6531 72.0703 11.7312 71.487 11.8875 70.9609C12.0437 70.4297 12.2703 69.974 12.5672 69.5938C12.8693 69.2083 13.2312 68.9115 13.6531 68.7031C14.0802 68.4948 14.5594 68.3906 15.0906 68.3906C15.6635 68.3906 16.1375 68.5 16.5125 68.7188C16.8875 68.9323 17.1922 69.2344 17.4266 69.625C17.6609 70.0104 17.8458 70.4661 17.9812 70.9922C18.1167 71.513 18.226 72.0781 18.3094 72.6875V72.9688C18.226 73.5521 18.1062 74.0964 17.95 74.6016C17.7937 75.1068 17.5906 75.5521 17.3406 75.9375C17.0906 76.3177 16.7781 76.6172 16.4031 76.8359C16.0333 77.0495 15.5906 77.1562 15.075 77.1562C14.549 77.1562 14.075 77.0495 13.6531 76.8359C13.2312 76.6224 12.8693 76.3229 12.5672 75.9375C12.2703 75.5521 12.0437 75.099 11.8875 74.5781C11.7312 74.0573 11.6531 73.4896 11.6531 72.875ZM14.0906 72.7109V72.875C14.0906 73.2083 14.1219 73.5182 14.1844 73.8047C14.2521 74.0911 14.351 74.3438 14.4812 74.5625C14.6167 74.7812 14.7833 74.9531 14.9812 75.0781C15.1844 75.1979 15.4214 75.2578 15.6922 75.2578C16.088 75.2578 16.4083 75.1745 16.6531 75.0078C16.9031 74.8359 17.0854 74.599 17.2 74.2969C17.3198 73.9948 17.3823 73.6432 17.3875 73.2422V72.4219C17.3875 72.0885 17.3536 71.7891 17.2859 71.5234C17.2182 71.2578 17.1167 71.0339 16.9812 70.8516C16.851 70.6693 16.6792 70.5312 16.4656 70.4375C16.2573 70.3385 16.0047 70.2891 15.7078 70.2891C15.4422 70.2891 15.2078 70.3516 15.0047 70.4766C14.8016 70.5964 14.6323 70.7656 14.4969 70.9844C14.3615 71.2031 14.2599 71.4609 14.1922 71.7578C14.1245 72.0495 14.0906 72.3672 14.0906 72.7109ZM23.7906 70.5156V77H21.3531V68.5469H23.6422L23.7906 70.5156ZM26.3141 68.4844L26.275 70.7578C26.1708 70.7422 26.0354 70.7292 25.8687 70.7188C25.7021 70.7031 25.5589 70.6953 25.4391 70.6953C25.1266 70.6953 24.8557 70.7344 24.6266 70.8125C24.4026 70.8854 24.2151 70.9948 24.0641 71.1406C23.9182 71.2865 23.8089 71.4688 23.7359 71.6875C23.663 71.901 23.6266 72.1484 23.6266 72.4297L23.1656 72.2031C23.1656 71.6458 23.2203 71.1354 23.3297 70.6719C23.4391 70.2083 23.5979 69.8073 23.8062 69.4688C24.0146 69.125 24.2698 68.8594 24.5719 68.6719C24.874 68.4844 25.2177 68.3906 25.6031 68.3906C25.7281 68.3906 25.8557 68.3984 25.9859 68.4141C26.1161 68.4297 26.2255 68.4531 26.3141 68.4844ZM31.3422 77.1562C30.6703 77.1562 30.0688 77.0495 29.5375 76.8359C29.0063 76.6224 28.5557 76.3281 28.1859 75.9531C27.8214 75.5729 27.5427 75.1354 27.35 74.6406C27.1573 74.1458 27.0609 73.6172 27.0609 73.0547V72.7578C27.0609 72.1276 27.1495 71.5469 27.3266 71.0156C27.5036 70.4844 27.7615 70.0234 28.1 69.6328C28.4438 69.237 28.8656 68.9323 29.3656 68.7188C29.8656 68.5 30.4359 68.3906 31.0766 68.3906C31.6755 68.3906 32.2094 68.4896 32.6781 68.6875C33.1469 68.8802 33.5427 69.1589 33.8656 69.5234C34.1885 69.8828 34.4333 70.3177 34.6 70.8281C34.7719 71.3333 34.8578 71.901 34.8578 72.5312V73.5312H28.0453V71.9609H32.4672V71.7734C32.4672 71.4766 32.4125 71.2161 32.3031 70.9922C32.199 70.7682 32.0427 70.5964 31.8344 70.4766C31.6313 70.3516 31.3734 70.2891 31.0609 70.2891C30.7641 70.2891 30.5167 70.3516 30.3188 70.4766C30.1208 70.6016 29.962 70.7786 29.8422 71.0078C29.7276 71.2318 29.6443 71.4948 29.5922 71.7969C29.5401 72.0938 29.5141 72.4141 29.5141 72.7578V73.0547C29.5141 73.3828 29.5583 73.6823 29.6469 73.9531C29.7354 74.224 29.8656 74.4557 30.0375 74.6484C30.2094 74.8411 30.4177 74.9922 30.6625 75.1016C30.9073 75.2109 31.1859 75.2656 31.4984 75.2656C31.8839 75.2656 32.251 75.1927 32.6 75.0469C32.949 74.8958 33.251 74.6615 33.5063 74.3438L34.6469 75.6484C34.475 75.8984 34.2328 76.1406 33.9203 76.375C33.613 76.6042 33.2432 76.7917 32.8109 76.9375C32.3786 77.0833 31.8891 77.1562 31.3422 77.1562ZM40.2297 77.1562C39.5578 77.1562 38.9562 77.0495 38.425 76.8359C37.8937 76.6224 37.4432 76.3281 37.0734 75.9531C36.7089 75.5729 36.4302 75.1354 36.2375 74.6406C36.0448 74.1458 35.9484 73.6172 35.9484 73.0547V72.7578C35.9484 72.1276 36.037 71.5469 36.2141 71.0156C36.3911 70.4844 36.649 70.0234 36.9875 69.6328C37.3312 69.237 37.7531 68.9323 38.2531 68.7188C38.7531 68.5 39.3234 68.3906 39.9641 68.3906C40.563 68.3906 41.0969 68.4896 41.5656 68.6875C42.0344 68.8802 42.4302 69.1589 42.7531 69.5234C43.076 69.8828 43.3208 70.3177 43.4875 70.8281C43.6594 71.3333 43.7453 71.901 43.7453 72.5312V73.5312H36.9328V71.9609H41.3547V71.7734C41.3547 71.4766 41.3 71.2161 41.1906 70.9922C41.0865 70.7682 40.9302 70.5964 40.7219 70.4766C40.5187 70.3516 40.2609 70.2891 39.9484 70.2891C39.6516 70.2891 39.4042 70.3516 39.2062 70.4766C39.0083 70.6016 38.8495 70.7786 38.7297 71.0078C38.6151 71.2318 38.5318 71.4948 38.4797 71.7969C38.4276 72.0938 38.4016 72.4141 38.4016 72.7578V73.0547C38.4016 73.3828 38.4458 73.6823 38.5344 73.9531C38.6229 74.224 38.7531 74.4557 38.925 74.6484C39.0969 74.8411 39.3052 74.9922 39.55 75.1016C39.7948 75.2109 40.0734 75.2656 40.3859 75.2656C40.7714 75.2656 41.1385 75.1927 41.4875 75.0469C41.8365 74.8958 42.1385 74.6615 42.3937 74.3438L43.5344 75.6484C43.3625 75.8984 43.1203 76.1406 42.8078 76.375C42.5005 76.6042 42.1307 76.7917 41.6984 76.9375C41.2661 77.0833 40.7766 77.1562 40.2297 77.1562ZM54.3016 65.625V77H51.7625V65.625H54.3016ZM57.7625 65.625V67.6016H48.3719V65.625H57.7625ZM62.3609 77.1562C61.6891 77.1562 61.0875 77.0495 60.5563 76.8359C60.025 76.6224 59.5745 76.3281 59.2047 75.9531C58.8401 75.5729 58.5615 75.1354 58.3688 74.6406C58.176 74.1458 58.0797 73.6172 58.0797 73.0547V72.7578C58.0797 72.1276 58.1682 71.5469 58.3453 71.0156C58.5224 70.4844 58.7802 70.0234 59.1188 69.6328C59.4625 69.237 59.8844 68.9323 60.3844 68.7188C60.8844 68.5 61.4547 68.3906 62.0953 68.3906C62.6943 68.3906 63.2281 68.4896 63.6969 68.6875C64.1656 68.8802 64.5615 69.1589 64.8844 69.5234C65.2073 69.8828 65.4521 70.3177 65.6188 70.8281C65.7906 71.3333 65.8766 71.901 65.8766 72.5312V73.5312H59.0641V71.9609H63.4859V71.7734C63.4859 71.4766 63.4313 71.2161 63.3219 70.9922C63.2177 70.7682 63.0615 70.5964 62.8531 70.4766C62.65 70.3516 62.3922 70.2891 62.0797 70.2891C61.7828 70.2891 61.5354 70.3516 61.3375 70.4766C61.1396 70.6016 60.9807 70.7786 60.8609 71.0078C60.7464 71.2318 60.663 71.4948 60.6109 71.7969C60.5589 72.0938 60.5328 72.4141 60.5328 72.7578V73.0547C60.5328 73.3828 60.5771 73.6823 60.6656 73.9531C60.7542 74.224 60.8844 74.4557 61.0563 74.6484C61.2281 74.8411 61.4365 74.9922 61.6813 75.1016C61.926 75.2109 62.2047 75.2656 62.5172 75.2656C62.9026 75.2656 63.2698 75.1927 63.6188 75.0469C63.9677 74.8958 64.2698 74.6615 64.525 74.3438L65.6656 75.6484C65.4938 75.8984 65.2516 76.1406 64.9391 76.375C64.6318 76.6042 64.262 76.7917 63.8297 76.9375C63.3974 77.0833 62.9078 77.1562 62.3609 77.1562ZM69.7094 70.5156V77H67.2719V68.5469H69.5609L69.7094 70.5156ZM72.2328 68.4844L72.1937 70.7578C72.0896 70.7422 71.9542 70.7292 71.7875 70.7188C71.6208 70.7031 71.4776 70.6953 71.3578 70.6953C71.0453 70.6953 70.7745 70.7344 70.5453 70.8125C70.3214 70.8854 70.1339 70.9948 69.9828 71.1406C69.837 71.2865 69.7276 71.4688 69.6547 71.6875C69.5818 71.901 69.5453 72.1484 69.5453 72.4297L69.0844 72.2031C69.0844 71.6458 69.1391 71.1354 69.2484 70.6719C69.3578 70.2083 69.5167 69.8073 69.725 69.4688C69.9333 69.125 70.1885 68.8594 70.4906 68.6719C70.7927 68.4844 71.1365 68.3906 71.5219 68.3906C71.6469 68.3906 71.7745 68.3984 71.9047 68.4141C72.0349 68.4297 72.1443 68.4531 72.2328 68.4844ZM75.8781 70.3203V77H73.4406V68.5469H75.7297L75.8781 70.3203ZM75.5656 72.4766L74.9484 72.4922C74.9484 71.8984 75.0188 71.3542 75.1594 70.8594C75.3052 70.3594 75.5161 69.9245 75.7922 69.5547C76.0682 69.1849 76.4094 68.8984 76.8156 68.6953C77.2271 68.4922 77.701 68.3906 78.2375 68.3906C78.6125 68.3906 78.9536 68.4479 79.2609 68.5625C79.5682 68.6719 79.8313 68.8464 80.05 69.0859C80.274 69.3203 80.4458 69.6276 80.5656 70.0078C80.6854 70.3828 80.7453 70.8333 80.7453 71.3594V77H78.3078V71.6562C78.3078 71.2812 78.2609 70.9974 78.1672 70.8047C78.0786 70.6068 77.9484 70.4714 77.7766 70.3984C77.6047 70.3255 77.399 70.2891 77.1594 70.2891C76.899 70.2891 76.6672 70.3464 76.4641 70.4609C76.2661 70.5703 76.0995 70.724 75.9641 70.9219C75.8286 71.1198 75.7271 71.3516 75.6594 71.6172C75.5969 71.8828 75.5656 72.1693 75.5656 72.4766ZM80.4953 72.3516L79.7219 72.4141C79.7219 71.8411 79.7896 71.3099 79.925 70.8203C80.0604 70.3307 80.2635 69.9062 80.5344 69.5469C80.8052 69.1823 81.1411 68.8984 81.5422 68.6953C81.9484 68.4922 82.4198 68.3906 82.9563 68.3906C83.3521 68.3906 83.7115 68.4479 84.0344 68.5625C84.3625 68.6771 84.6438 68.862 84.8781 69.1172C85.1177 69.3724 85.3026 69.7083 85.4328 70.125C85.563 70.5365 85.6281 71.0417 85.6281 71.6406V77H83.175V71.6406C83.175 71.2708 83.1281 70.9896 83.0344 70.7969C82.9458 70.6042 82.8156 70.4714 82.6438 70.3984C82.4771 70.3255 82.2766 70.2891 82.0422 70.2891C81.7818 70.2891 81.5552 70.3438 81.3625 70.4531C81.1698 70.5573 81.0083 70.7031 80.8781 70.8906C80.7479 71.0729 80.6516 71.2891 80.5891 71.5391C80.5266 71.7891 80.4953 72.0599 80.4953 72.3516ZM91.9609 74.6484C91.9609 74.4922 91.9115 74.3542 91.8125 74.2344C91.7188 74.1146 91.5469 74.0052 91.2969 73.9062C91.0521 73.8073 90.7057 73.7083 90.2578 73.6094C89.8359 73.5208 89.4427 73.4062 89.0781 73.2656C88.7135 73.1198 88.3958 72.9453 88.125 72.7422C87.8542 72.5339 87.6432 72.2891 87.4922 72.0078C87.3411 71.7214 87.2656 71.3958 87.2656 71.0312C87.2656 70.6771 87.3411 70.3411 87.4922 70.0234C87.6484 69.7057 87.8724 69.4245 88.1641 69.1797C88.4609 68.9349 88.8203 68.7422 89.2422 68.6016C89.6693 68.4609 90.1536 68.3906 90.6953 68.3906C91.4401 68.3906 92.0833 68.5078 92.625 68.7422C93.1667 68.9714 93.5833 69.2943 93.875 69.7109C94.1667 70.1224 94.3125 70.5938 94.3125 71.125H91.875C91.875 70.9062 91.8333 70.7161 91.75 70.5547C91.6667 70.3932 91.5391 70.2682 91.3672 70.1797C91.1953 70.0859 90.9688 70.0391 90.6875 70.0391C90.4688 70.0391 90.276 70.0781 90.1094 70.1562C89.9479 70.2292 89.8203 70.3307 89.7266 70.4609C89.638 70.5911 89.5938 70.7422 89.5938 70.9141C89.5938 71.0339 89.6198 71.1432 89.6719 71.2422C89.7292 71.3359 89.8151 71.4245 89.9297 71.5078C90.0495 71.5859 90.2031 71.6562 90.3906 71.7188C90.5833 71.7812 90.8177 71.8411 91.0938 71.8984C91.6823 72.0078 92.2188 72.1615 92.7031 72.3594C93.1927 72.5573 93.5833 72.8307 93.875 73.1797C94.1719 73.5286 94.3203 73.9896 94.3203 74.5625C94.3203 74.9375 94.2344 75.2812 94.0625 75.5938C93.8958 75.9062 93.6536 76.1797 93.3359 76.4141C93.0182 76.6484 92.638 76.8307 92.1953 76.9609C91.7526 77.0911 91.2526 77.1562 90.6953 77.1562C89.8984 77.1562 89.224 77.013 88.6719 76.7266C88.1198 76.4401 87.7031 76.0807 87.4219 75.6484C87.1458 75.2109 87.0078 74.763 87.0078 74.3047H89.2969C89.3073 74.5859 89.3776 74.8151 89.5078 74.9922C89.6432 75.1693 89.8177 75.2995 90.0312 75.3828C90.2448 75.4609 90.4844 75.5 90.75 75.5C91.0156 75.5 91.237 75.4635 91.4141 75.3906C91.5911 75.3177 91.7266 75.2188 91.8203 75.0938C91.9141 74.9635 91.9609 74.8151 91.9609 74.6484Z" fill="#1A202C"/>
<path d="M462.246 28V26.512C462.928 25.9467 463.59 25.3867 464.23 24.832C464.88 24.2773 465.456 23.728 465.958 23.184C466.47 22.64 466.875 22.112 467.174 21.6C467.483 21.0773 467.638 20.5707 467.638 20.08C467.638 19.6213 467.51 19.216 467.254 18.864C467.008 18.512 466.598 18.336 466.022 18.336C465.435 18.336 464.992 18.528 464.694 18.912C464.395 19.296 464.246 19.76 464.246 20.304H462.262C462.283 19.4827 462.464 18.8 462.806 18.256C463.147 17.7013 463.6 17.2907 464.166 17.024C464.731 16.7467 465.366 16.608 466.07 16.608C467.211 16.608 468.096 16.9227 468.726 17.552C469.366 18.1707 469.686 18.976 469.686 19.968C469.686 20.5867 469.542 21.1893 469.254 21.776C468.976 22.3627 468.608 22.928 468.15 23.472C467.691 24.016 467.195 24.528 466.662 25.008C466.128 25.4773 465.611 25.9147 465.11 26.32H469.958V28H462.246Z" fill="#A0AEC0"/>
<circle cx="466" cy="22" r="21" stroke="#A0AEC0" stroke-width="2"/>
<path d="M413.464 71.6797H410.581L410.566 70.4688H413.183C413.615 70.4688 413.993 70.3958 414.316 70.25C414.639 70.1042 414.889 69.8958 415.066 69.625C415.248 69.349 415.339 69.0208 415.339 68.6406C415.339 68.224 415.258 67.8854 415.097 67.625C414.941 67.3594 414.698 67.1667 414.37 67.0469C414.047 66.9219 413.636 66.8594 413.136 66.8594H410.917V77H409.409V65.625H413.136C413.719 65.625 414.24 65.6849 414.698 65.8047C415.157 65.9193 415.545 66.1016 415.862 66.3516C416.185 66.5964 416.43 66.9089 416.597 67.2891C416.764 67.6693 416.847 68.125 416.847 68.6562C416.847 69.125 416.727 69.5495 416.487 69.9297C416.248 70.3047 415.915 70.612 415.487 70.8516C415.066 71.0911 414.571 71.2448 414.003 71.3125L413.464 71.6797ZM413.394 77H409.987L410.839 75.7734H413.394C413.873 75.7734 414.279 75.6901 414.612 75.5234C414.951 75.3568 415.209 75.1224 415.386 74.8203C415.563 74.513 415.652 74.151 415.652 73.7344C415.652 73.3125 415.576 72.9479 415.425 72.6406C415.274 72.3333 415.037 72.0964 414.714 71.9297C414.391 71.763 413.974 71.6797 413.464 71.6797H411.316L411.331 70.4688H414.269L414.589 70.9062C415.136 70.9531 415.599 71.1094 415.98 71.375C416.36 71.6354 416.649 71.9688 416.847 72.375C417.05 72.7812 417.152 73.2292 417.152 73.7188C417.152 74.4271 416.995 75.026 416.683 75.5156C416.376 76 415.941 76.3698 415.378 76.625C414.816 76.875 414.154 77 413.394 77ZM419.077 72.8672V72.6875C419.077 72.0781 419.165 71.513 419.342 70.9922C419.519 70.4661 419.774 70.0104 420.108 69.625C420.441 69.2344 420.845 68.9323 421.319 68.7188C421.793 68.5 422.324 68.3906 422.912 68.3906C423.506 68.3906 424.04 68.5 424.514 68.7188C424.993 68.9323 425.399 69.2344 425.733 69.625C426.071 70.0104 426.329 70.4661 426.506 70.9922C426.683 71.513 426.772 72.0781 426.772 72.6875V72.8672C426.772 73.4766 426.683 74.0417 426.506 74.5625C426.329 75.0833 426.071 75.5391 425.733 75.9297C425.399 76.3151 424.996 76.6172 424.522 76.8359C424.053 77.0495 423.522 77.1562 422.928 77.1562C422.334 77.1562 421.801 77.0495 421.327 76.8359C420.853 76.6172 420.446 76.3151 420.108 75.9297C419.774 75.5391 419.519 75.0833 419.342 74.5625C419.165 74.0417 419.077 73.4766 419.077 72.8672ZM420.522 72.6875V72.8672C420.522 73.2891 420.571 73.6875 420.67 74.0625C420.769 74.4323 420.918 74.7604 421.116 75.0469C421.319 75.3333 421.571 75.5599 421.873 75.7266C422.176 75.888 422.527 75.9688 422.928 75.9688C423.324 75.9688 423.67 75.888 423.967 75.7266C424.269 75.5599 424.519 75.3333 424.717 75.0469C424.915 74.7604 425.064 74.4323 425.162 74.0625C425.267 73.6875 425.319 73.2891 425.319 72.8672V72.6875C425.319 72.2708 425.267 71.8776 425.162 71.5078C425.064 71.1328 424.912 70.8021 424.709 70.5156C424.511 70.224 424.261 69.9948 423.959 69.8281C423.662 69.6615 423.314 69.5781 422.912 69.5781C422.517 69.5781 422.168 69.6615 421.866 69.8281C421.569 69.9948 421.319 70.224 421.116 70.5156C420.918 70.8021 420.769 71.1328 420.67 71.5078C420.571 71.8776 420.522 72.2708 420.522 72.6875ZM432.423 68.5469V69.6562H427.853V68.5469H432.423ZM429.4 66.4922H430.845V74.9062C430.845 75.1927 430.89 75.4089 430.978 75.5547C431.067 75.7005 431.181 75.7969 431.322 75.8438C431.462 75.8906 431.614 75.9141 431.775 75.9141C431.895 75.9141 432.02 75.9036 432.15 75.8828C432.285 75.8568 432.387 75.8359 432.455 75.8203L432.462 77C432.348 77.0365 432.197 77.0703 432.009 77.1016C431.827 77.138 431.606 77.1562 431.345 77.1562C430.991 77.1562 430.666 77.0859 430.369 76.9453C430.072 76.8047 429.835 76.5703 429.658 76.2422C429.486 75.9089 429.4 75.4609 429.4 74.8984V66.4922ZM444.969 74.125C444.969 73.8594 444.927 73.625 444.844 73.4219C444.766 73.2135 444.625 73.026 444.422 72.8594C444.224 72.6927 443.948 72.5339 443.594 72.3828C443.245 72.2318 442.802 72.0781 442.266 71.9219C441.703 71.7552 441.195 71.5703 440.742 71.3672C440.289 71.1589 439.901 70.9219 439.578 70.6562C439.255 70.3906 439.008 70.0859 438.836 69.7422C438.664 69.3984 438.578 69.0052 438.578 68.5625C438.578 68.1198 438.669 67.7109 438.852 67.3359C439.034 66.9609 439.294 66.6354 439.633 66.3594C439.977 66.0781 440.385 65.8594 440.859 65.7031C441.333 65.5469 441.862 65.4688 442.445 65.4688C443.299 65.4688 444.023 65.6328 444.617 65.9609C445.216 66.2839 445.672 66.7083 445.984 67.2344C446.297 67.7552 446.453 68.3125 446.453 68.9062H444.953C444.953 68.4792 444.862 68.1016 444.68 67.7734C444.497 67.4401 444.221 67.1797 443.852 66.9922C443.482 66.7995 443.013 66.7031 442.445 66.7031C441.909 66.7031 441.466 66.7839 441.117 66.9453C440.768 67.1068 440.508 67.3255 440.336 67.6016C440.169 67.8776 440.086 68.1927 440.086 68.5469C440.086 68.7865 440.135 69.0052 440.234 69.2031C440.339 69.3958 440.497 69.5755 440.711 69.7422C440.93 69.9089 441.206 70.0625 441.539 70.2031C441.878 70.3438 442.281 70.4792 442.75 70.6094C443.396 70.7917 443.953 70.9948 444.422 71.2188C444.891 71.4427 445.276 71.6953 445.578 71.9766C445.885 72.2526 446.112 72.5677 446.258 72.9219C446.409 73.2708 446.484 73.6667 446.484 74.1094C446.484 74.5729 446.391 74.9922 446.203 75.3672C446.016 75.7422 445.747 76.0625 445.398 76.3281C445.049 76.5938 444.63 76.7995 444.141 76.9453C443.656 77.0859 443.115 77.1562 442.516 77.1562C441.99 77.1562 441.471 77.0833 440.961 76.9375C440.456 76.7917 439.995 76.5729 439.578 76.2812C439.167 75.9896 438.836 75.6302 438.586 75.2031C438.341 74.7708 438.219 74.2708 438.219 73.7031H439.719C439.719 74.0938 439.794 74.4297 439.945 74.7109C440.096 74.987 440.302 75.2161 440.562 75.3984C440.828 75.5807 441.128 75.7161 441.461 75.8047C441.799 75.888 442.151 75.9297 442.516 75.9297C443.042 75.9297 443.487 75.8568 443.852 75.7109C444.216 75.5651 444.492 75.3568 444.68 75.0859C444.872 74.8151 444.969 74.4948 444.969 74.125ZM453.659 75.0469V68.5469H455.112V77H453.73L453.659 75.0469ZM453.933 73.2656L454.534 73.25C454.534 73.8125 454.474 74.3333 454.355 74.8125C454.24 75.2865 454.053 75.6979 453.792 76.0469C453.532 76.3958 453.191 76.6693 452.769 76.8672C452.347 77.0599 451.834 77.1562 451.23 77.1562C450.818 77.1562 450.441 77.0964 450.097 76.9766C449.758 76.8568 449.467 76.6719 449.222 76.4219C448.977 76.1719 448.787 75.8464 448.652 75.4453C448.521 75.0443 448.456 74.5625 448.456 74V68.5469H449.902V74.0156C449.902 74.3958 449.943 74.7109 450.027 74.9609C450.115 75.2057 450.232 75.401 450.378 75.5469C450.529 75.6875 450.696 75.7865 450.878 75.8438C451.066 75.901 451.258 75.9297 451.456 75.9297C452.071 75.9297 452.558 75.8125 452.917 75.5781C453.277 75.3385 453.534 75.0182 453.691 74.6172C453.852 74.2109 453.933 73.7604 453.933 73.2656ZM457.608 65H459.061V75.3594L458.936 77H457.608V65ZM464.772 72.7031V72.8672C464.772 73.4818 464.699 74.0521 464.553 74.5781C464.407 75.099 464.194 75.5521 463.912 75.9375C463.631 76.3229 463.287 76.6224 462.881 76.8359C462.475 77.0495 462.009 77.1562 461.483 77.1562C460.946 77.1562 460.475 77.0651 460.069 76.8828C459.668 76.6953 459.329 76.4271 459.053 76.0781C458.777 75.7292 458.556 75.3073 458.389 74.8125C458.228 74.3177 458.116 73.7604 458.053 73.1406V72.4219C458.116 71.7969 458.228 71.237 458.389 70.7422C458.556 70.2474 458.777 69.8255 459.053 69.4766C459.329 69.1224 459.668 68.8542 460.069 68.6719C460.47 68.4844 460.936 68.3906 461.467 68.3906C461.998 68.3906 462.47 68.4948 462.881 68.7031C463.293 68.9062 463.636 69.1979 463.912 69.5781C464.194 69.9583 464.407 70.4141 464.553 70.9453C464.699 71.4714 464.772 72.0573 464.772 72.7031ZM463.319 72.8672V72.7031C463.319 72.2812 463.28 71.8854 463.202 71.5156C463.123 71.1406 462.998 70.8125 462.827 70.5312C462.655 70.2448 462.428 70.0208 462.147 69.8594C461.866 69.6927 461.519 69.6094 461.108 69.6094C460.743 69.6094 460.426 69.6719 460.155 69.7969C459.889 69.9219 459.662 70.0911 459.475 70.3047C459.287 70.513 459.134 70.7526 459.014 71.0234C458.899 71.2891 458.814 71.5651 458.756 71.8516V73.7344C458.84 74.099 458.975 74.4505 459.162 74.7891C459.355 75.1224 459.61 75.3958 459.928 75.6094C460.251 75.8229 460.649 75.9297 461.123 75.9297C461.514 75.9297 461.847 75.8516 462.123 75.6953C462.405 75.5339 462.631 75.3125 462.803 75.0312C462.98 74.75 463.11 74.4245 463.194 74.0547C463.277 73.6849 463.319 73.2891 463.319 72.8672ZM468.337 70.2266V77H466.884V68.5469H468.259L468.337 70.2266ZM468.041 72.4531L467.369 72.4297C467.374 71.8516 467.449 71.3177 467.595 70.8281C467.741 70.3333 467.957 69.9036 468.244 69.5391C468.53 69.1745 468.887 68.8932 469.314 68.6953C469.741 68.4922 470.236 68.3906 470.798 68.3906C471.194 68.3906 471.559 68.4479 471.892 68.5625C472.226 68.6719 472.515 68.8464 472.759 69.0859C473.004 69.3255 473.194 69.6328 473.33 70.0078C473.465 70.3828 473.533 70.8359 473.533 71.3672V77H472.087V71.4375C472.087 70.9948 472.012 70.6406 471.861 70.375C471.715 70.1094 471.507 69.9167 471.236 69.7969C470.965 69.6719 470.647 69.6094 470.283 69.6094C469.856 69.6094 469.499 69.6849 469.212 69.8359C468.926 69.987 468.697 70.1953 468.525 70.4609C468.353 70.7266 468.228 71.0312 468.15 71.375C468.077 71.7135 468.041 72.0729 468.041 72.4531ZM473.517 71.6562L472.548 71.9531C472.554 71.4896 472.629 71.0443 472.775 70.6172C472.926 70.1901 473.142 69.8099 473.423 69.4766C473.71 69.1432 474.061 68.8802 474.478 68.6875C474.895 68.4896 475.371 68.3906 475.908 68.3906C476.361 68.3906 476.762 68.4505 477.111 68.5703C477.465 68.6901 477.762 68.875 478.002 69.125C478.246 69.3698 478.431 69.6849 478.556 70.0703C478.681 70.4557 478.744 70.9141 478.744 71.4453V77H477.291V71.4297C477.291 70.9557 477.215 70.5885 477.064 70.3281C476.918 70.0625 476.71 69.8776 476.439 69.7734C476.173 69.6641 475.856 69.6094 475.486 69.6094C475.168 69.6094 474.887 69.6641 474.642 69.7734C474.397 69.8828 474.192 70.0339 474.025 70.2266C473.858 70.4141 473.731 70.6302 473.642 70.875C473.559 71.1198 473.517 71.3802 473.517 71.6562ZM482.802 68.5469V77H481.348V68.5469H482.802ZM481.239 66.3047C481.239 66.0703 481.309 65.8724 481.45 65.7109C481.596 65.5495 481.809 65.4688 482.091 65.4688C482.367 65.4688 482.578 65.5495 482.723 65.7109C482.874 65.8724 482.95 66.0703 482.95 66.3047C482.95 66.5286 482.874 66.7214 482.723 66.8828C482.578 67.0391 482.367 67.1172 482.091 67.1172C481.809 67.1172 481.596 67.0391 481.45 66.8828C481.309 66.7214 481.239 66.5286 481.239 66.3047ZM490.344 74.7578C490.344 74.5495 490.297 74.3568 490.203 74.1797C490.115 73.9974 489.93 73.8333 489.648 73.6875C489.372 73.5365 488.956 73.4062 488.398 73.2969C487.93 73.1979 487.505 73.0807 487.125 72.9453C486.75 72.8099 486.43 72.6458 486.164 72.4531C485.904 72.2604 485.703 72.0339 485.562 71.7734C485.422 71.513 485.352 71.2083 485.352 70.8594C485.352 70.526 485.424 70.2109 485.57 69.9141C485.721 69.6172 485.932 69.3542 486.203 69.125C486.479 68.8958 486.81 68.7161 487.195 68.5859C487.581 68.4557 488.01 68.3906 488.484 68.3906C489.161 68.3906 489.74 68.5104 490.219 68.75C490.698 68.9896 491.065 69.3099 491.32 69.7109C491.576 70.1068 491.703 70.5469 491.703 71.0312H490.258C490.258 70.7969 490.188 70.5703 490.047 70.3516C489.911 70.1276 489.711 69.9427 489.445 69.7969C489.185 69.651 488.865 69.5781 488.484 69.5781C488.083 69.5781 487.758 69.6406 487.508 69.7656C487.263 69.8854 487.083 70.0391 486.969 70.2266C486.859 70.4141 486.805 70.612 486.805 70.8203C486.805 70.9766 486.831 71.1172 486.883 71.2422C486.94 71.362 487.039 71.474 487.18 71.5781C487.32 71.6771 487.518 71.7708 487.773 71.8594C488.029 71.9479 488.354 72.0365 488.75 72.125C489.443 72.2812 490.013 72.4688 490.461 72.6875C490.909 72.9062 491.242 73.1745 491.461 73.4922C491.68 73.8099 491.789 74.1953 491.789 74.6484C491.789 75.0182 491.711 75.3568 491.555 75.6641C491.404 75.9714 491.182 76.237 490.891 76.4609C490.604 76.6797 490.26 76.8516 489.859 76.9766C489.464 77.0964 489.018 77.1562 488.523 77.1562C487.779 77.1562 487.148 77.0234 486.633 76.7578C486.117 76.4922 485.727 76.1484 485.461 75.7266C485.195 75.3047 485.062 74.8594 485.062 74.3906H486.516C486.536 74.7865 486.651 75.1016 486.859 75.3359C487.068 75.5651 487.323 75.7292 487.625 75.8281C487.927 75.9219 488.227 75.9688 488.523 75.9688C488.919 75.9688 489.25 75.9167 489.516 75.8125C489.786 75.7083 489.992 75.5651 490.133 75.3828C490.273 75.2005 490.344 74.9922 490.344 74.7578ZM498.909 74.7578C498.909 74.5495 498.863 74.3568 498.769 74.1797C498.68 73.9974 498.495 73.8333 498.214 73.6875C497.938 73.5365 497.521 73.4062 496.964 73.2969C496.495 73.1979 496.071 73.0807 495.691 72.9453C495.316 72.8099 494.995 72.6458 494.73 72.4531C494.469 72.2604 494.269 72.0339 494.128 71.7734C493.988 71.513 493.917 71.2083 493.917 70.8594C493.917 70.526 493.99 70.2109 494.136 69.9141C494.287 69.6172 494.498 69.3542 494.769 69.125C495.045 68.8958 495.376 68.7161 495.761 68.5859C496.146 68.4557 496.576 68.3906 497.05 68.3906C497.727 68.3906 498.305 68.5104 498.784 68.75C499.264 68.9896 499.631 69.3099 499.886 69.7109C500.141 70.1068 500.269 70.5469 500.269 71.0312H498.823C498.823 70.7969 498.753 70.5703 498.613 70.3516C498.477 70.1276 498.277 69.9427 498.011 69.7969C497.751 69.651 497.43 69.5781 497.05 69.5781C496.649 69.5781 496.323 69.6406 496.073 69.7656C495.829 69.8854 495.649 70.0391 495.534 70.2266C495.425 70.4141 495.37 70.612 495.37 70.8203C495.37 70.9766 495.396 71.1172 495.448 71.2422C495.506 71.362 495.605 71.474 495.745 71.5781C495.886 71.6771 496.084 71.7708 496.339 71.8594C496.594 71.9479 496.92 72.0365 497.316 72.125C498.008 72.2812 498.579 72.4688 499.027 72.6875C499.474 72.9062 499.808 73.1745 500.027 73.4922C500.245 73.8099 500.355 74.1953 500.355 74.6484C500.355 75.0182 500.277 75.3568 500.12 75.6641C499.969 75.9714 499.748 76.237 499.456 76.4609C499.17 76.6797 498.826 76.8516 498.425 76.9766C498.029 77.0964 497.584 77.1562 497.089 77.1562C496.344 77.1562 495.714 77.0234 495.198 76.7578C494.683 76.4922 494.292 76.1484 494.027 75.7266C493.761 75.3047 493.628 74.8594 493.628 74.3906H495.081C495.102 74.7865 495.217 75.1016 495.425 75.3359C495.633 75.5651 495.889 75.7292 496.191 75.8281C496.493 75.9219 496.792 75.9688 497.089 75.9688C497.485 75.9688 497.816 75.9167 498.081 75.8125C498.352 75.7083 498.558 75.5651 498.698 75.3828C498.839 75.2005 498.909 74.9922 498.909 74.7578ZM504.123 68.5469V77H502.67V68.5469H504.123ZM502.561 66.3047C502.561 66.0703 502.631 65.8724 502.772 65.7109C502.918 65.5495 503.131 65.4688 503.413 65.4688C503.689 65.4688 503.899 65.5495 504.045 65.7109C504.196 65.8724 504.272 66.0703 504.272 66.3047C504.272 66.5286 504.196 66.7214 504.045 66.8828C503.899 67.0391 503.689 67.1172 503.413 67.1172C503.131 67.1172 502.918 67.0391 502.772 66.8828C502.631 66.7214 502.561 66.5286 502.561 66.3047ZM506.361 72.8672V72.6875C506.361 72.0781 506.449 71.513 506.627 70.9922C506.804 70.4661 507.059 70.0104 507.392 69.625C507.726 69.2344 508.129 68.9323 508.603 68.7188C509.077 68.5 509.608 68.3906 510.197 68.3906C510.791 68.3906 511.324 68.5 511.798 68.7188C512.278 68.9323 512.684 69.2344 513.017 69.625C513.356 70.0104 513.614 70.4661 513.791 70.9922C513.968 71.513 514.056 72.0781 514.056 72.6875V72.8672C514.056 73.4766 513.968 74.0417 513.791 74.5625C513.614 75.0833 513.356 75.5391 513.017 75.9297C512.684 76.3151 512.28 76.6172 511.806 76.8359C511.337 77.0495 510.806 77.1562 510.212 77.1562C509.619 77.1562 509.085 77.0495 508.611 76.8359C508.137 76.6172 507.731 76.3151 507.392 75.9297C507.059 75.5391 506.804 75.0833 506.627 74.5625C506.449 74.0417 506.361 73.4766 506.361 72.8672ZM507.806 72.6875V72.8672C507.806 73.2891 507.856 73.6875 507.955 74.0625C508.054 74.4323 508.202 74.7604 508.4 75.0469C508.603 75.3333 508.856 75.5599 509.158 75.7266C509.46 75.888 509.811 75.9688 510.212 75.9688C510.608 75.9688 510.955 75.888 511.252 75.7266C511.554 75.5599 511.804 75.3333 512.002 75.0469C512.199 74.7604 512.348 74.4323 512.447 74.0625C512.551 73.6875 512.603 73.2891 512.603 72.8672V72.6875C512.603 72.2708 512.551 71.8776 512.447 71.5078C512.348 71.1328 512.197 70.8021 511.994 70.5156C511.796 70.224 511.546 69.9948 511.244 69.8281C510.947 69.6615 510.598 69.5781 510.197 69.5781C509.801 69.5781 509.452 69.6615 509.15 69.8281C508.853 69.9948 508.603 70.224 508.4 70.5156C508.202 70.8021 508.054 71.1328 507.955 71.5078C507.856 71.8776 507.806 72.2708 507.806 72.6875ZM517.614 70.3516V77H516.169V68.5469H517.536L517.614 70.3516ZM517.27 72.4531L516.669 72.4297C516.674 71.8516 516.76 71.3177 516.927 70.8281C517.093 70.3333 517.328 69.9036 517.63 69.5391C517.932 69.1745 518.291 68.8932 518.708 68.6953C519.13 68.4922 519.596 68.3906 520.106 68.3906C520.523 68.3906 520.898 68.4479 521.231 68.5625C521.565 68.6719 521.848 68.849 522.083 69.0938C522.322 69.3385 522.505 69.6562 522.63 70.0469C522.755 70.4323 522.817 70.9036 522.817 71.4609V77H521.364V71.4453C521.364 71.0026 521.299 70.6484 521.169 70.3828C521.039 70.112 520.848 69.9167 520.598 69.7969C520.348 69.6719 520.041 69.6094 519.677 69.6094C519.317 69.6094 518.989 69.6849 518.692 69.8359C518.401 69.987 518.148 70.1953 517.934 70.4609C517.726 70.7266 517.562 71.0312 517.442 71.375C517.328 71.7135 517.27 72.0729 517.27 72.4531Z" fill="#A0AEC0"/>
</svg>
