<svg width="1728" height="512" viewBox="0 0 1728 512" fill="none" xmlns="http://www.w3.org/2000/svg">
<g clip-path="url(#clip0_45_1034)">
<rect width="1728" height="512" fill="#3AC8F7"/>
<g style="mix-blend-mode:overlay" opacity="0.6">
<path d="M1297.97 235.193L1372.51 162.039L1461.97 116.489L1555.87 100.066L1616.36 187.397L1648.64 264.22L1619.68 327.041L1644.23 348.73L1690.43 420.037L1642.39 479.938L1571.63 516.452L1487.28 522.916L1450.62 451.634L1424.94 427.375L1312.14 335.502L1297.97 235.193Z" fill="white"/>
<path d="M1324.29 218.92C1326.76 217.547 1360.81 184.452 1424.96 157.447C1460.58 142.446 1493.73 137.879 1514.35 140.075C1534.97 142.272 1541.57 149.435 1546.8 158.27C1552.03 167.106 1628.22 297.739 1628.22 297.739L1553.13 380.153L1465.93 410.478L1380.13 401.667L1312.19 320.352L1300.63 255.035L1324.29 218.92Z" fill="#6CC1E3"/>
<path d="M1558.61 388.19C1558.61 388.19 1576.07 378.88 1592.95 380.003C1609.84 381.126 1621.1 391.285 1625.06 396.925C1629.02 402.566 1655.74 432.192 1655.19 443.199C1654.64 454.205 1586.5 516.278 1586.5 516.278C1586.5 516.278 1557.21 517.126 1534.7 514.855C1512.18 512.609 1505.71 501.876 1498.93 486.652C1492.18 471.427 1489.14 452.758 1497.59 440.054C1506.03 427.35 1558.61 388.19 1558.61 388.19Z" fill="#6CC1E3"/>
<path d="M1665.25 350.302C1656.01 339.245 1647.67 332.806 1641.99 329.237C1638.23 326.866 1637.36 321.749 1640.17 318.305L1663.04 290.401C1668.34 281.791 1668.49 260.276 1664.16 251.141L1656.93 235.917C1654.59 231 1655.14 225.184 1658.35 220.792L1672.28 201.773C1676.01 196.657 1676.39 189.818 1673.22 184.352L1644.31 134.36C1639.85 126.647 1631.33 122.205 1622.46 123.003L1592.18 125.724L1580.35 100.516C1580.35 100.516 1564.41 86.7885 1555.97 86.0397C1547.52 85.3159 1528.82 80.5238 1473.45 94.5007C1436.84 103.735 1417.22 114.093 1408.13 120.058C1404.39 122.504 1399.38 121.406 1397.04 117.587L1386.98 101.14C1385.71 99.0931 1383.05 98.4192 1380.98 99.6671L1363.67 110.125C1361.53 111.423 1360.83 114.243 1362.15 116.389L1372.34 133.012C1374.73 136.93 1373.61 142.072 1369.77 144.593L1332.66 169.077L1297.47 205.093C1297.47 205.093 1265.57 242.955 1266.66 266.84C1267.38 282.714 1274.26 294.669 1278.82 300.934C1280.98 303.929 1280.63 308.047 1278.09 310.693L1265.94 323.322C1258.97 330.585 1257.55 341.567 1262.48 350.352L1291.62 402.466C1294.73 408.057 1300.81 411.326 1307.18 410.852L1332.71 408.955C1337.92 408.556 1342.95 410.977 1345.91 415.27L1357.59 432.192C1364.19 441.751 1375.38 447.092 1386.93 446.168L1428.77 442.899C1431.69 442.674 1434.18 444.97 1434.18 447.916C1434.18 454.879 1434.48 467.358 1436.47 478.49C1439.41 495.038 1462.5 530.304 1462.5 530.304L1489.27 536.194L1593.77 509.364L1645.48 470.778L1695.71 396.9C1695.71 396.9 1682.14 370.444 1665.28 350.227L1665.25 350.302ZM1460.68 397.524C1421.68 407.732 1407.08 397.799 1394.7 390.91C1382.32 384.021 1354.28 355.918 1334.75 316.758C1327.83 302.881 1322.08 290.651 1317.54 280.667C1307.96 259.527 1311.27 234.768 1326.24 217.048C1333.51 208.412 1343.17 198.653 1355.92 188.32C1399.11 153.328 1453.55 130.167 1493.73 119.409C1516.04 113.444 1531.41 112.646 1540.62 113.145C1547.03 113.469 1552.83 116.988 1556.12 122.479L1636.39 257.131C1640.35 263.795 1640.37 272.082 1636.39 278.746C1629.09 291.025 1615.12 311.117 1593.8 328.039C1560.52 354.495 1499.66 387.291 1460.63 397.499L1460.68 397.524ZM1627.94 469.729C1592.45 498.956 1567.62 507.966 1550.11 513.008C1535.12 517.326 1519.18 509.314 1514.35 504.746C1506.83 497.608 1495.7 486.552 1498.73 460.37C1501.75 434.188 1513.8 427.025 1513.8 427.025C1513.8 427.025 1553.68 398.922 1582.57 377.956C1610.46 357.715 1606.5 344.886 1621.34 352.474C1634.94 359.412 1642.79 365.277 1650.23 374.387C1656.09 381.55 1669.09 404.263 1674.34 413.597C1675.81 416.168 1675.64 419.338 1673.94 421.784C1668.52 429.646 1654.44 447.916 1627.94 469.754V469.729Z" fill="#0F3D4C"/>
<path d="M1422.09 286.087C1415.79 275.14 1401.82 271.389 1390.9 277.709C1379.97 284.029 1376.23 298.027 1382.54 308.974L1402.44 343.514C1408.74 354.461 1422.71 358.212 1433.63 351.891C1444.56 345.571 1448.3 331.574 1441.99 320.627L1422.09 286.087Z" fill="#0F3D4C"/>
<path d="M1544.2 213.883C1537.89 202.937 1523.92 199.186 1513 205.506C1502.08 211.826 1498.33 225.824 1504.64 236.771L1524.54 271.311C1530.85 282.258 1544.81 286.008 1555.74 279.688C1566.66 273.368 1570.4 259.371 1564.1 248.424L1544.2 213.883Z" fill="#0F3D4C"/>
<path d="M1468.02 -16.5906C1445.31 -16.5906 1423.22 -13.92 1402.02 -8.87834C1407.63 -0.417351 1411.74 9.14182 1413.95 19.3998C1431.39 15.6311 1449.47 13.6094 1468.02 13.6094C1609.07 13.6094 1723.81 128.594 1723.81 269.935C1723.81 411.276 1609.07 526.261 1468.02 526.261C1326.98 526.261 1212.24 411.276 1212.24 269.935C1212.24 204.518 1236.83 144.767 1277.22 99.4423C1269.6 92.6036 1263.23 84.3922 1258.52 75.1825C1211.12 126.348 1182.11 194.809 1182.11 269.96C1182.11 427.948 1310.37 556.486 1468.02 556.486C1625.68 556.486 1753.94 427.948 1753.94 269.96C1753.94 111.972 1625.68 -16.5906 1468.02 -16.5906Z" fill="#0F3D4C"/>
<path d="M1335.95 102.637C1371.4 102.637 1400.13 73.8406 1400.13 38.3185C1400.13 2.79638 1371.4 -26 1335.95 -26C1300.5 -26 1271.77 2.79638 1271.77 38.3185C1271.77 73.8406 1300.5 102.637 1335.95 102.637Z" fill="#0F3D4C"/>
<path fill-rule="evenodd" clip-rule="evenodd" d="M1338.12 28.4598C1336.95 29.8575 1335.8 31.2801 1334.68 32.7028C1332.56 35.3734 1330.45 38.1438 1328.2 40.7644C1326.19 43.1605 1324.37 45.7562 1322.35 48.1522C1320.18 50.7479 1317.4 53.6431 1313.76 53.6681C1308.6 53.693 1304.72 54.2172 1300.86 53.9177C1296.97 53.5932 1297.5 50.8727 1299.74 48.8261C1301.98 46.8044 1327.01 25.6894 1327.01 25.6894L1342.75 12.8107C1344.12 11.7375 1345.49 10.6393 1346.88 9.56608C1347.81 8.84228 1348.7 8.0436 1349.72 7.46955C1350.89 6.79567 1352.34 6.22162 1353.68 6.62096C1355.63 7.17005 1356.3 9.46625 1356.6 11.2134C1357.19 14.6327 1357.69 18.077 1358.19 21.5213C1358.86 26.0638 1359.49 30.6312 1360.13 35.1737C1360.68 39.217 1361.25 43.2603 1361.8 47.3036C1362.2 50.2238 1362.85 53.1439 1363.1 56.0891C1363.2 57.4119 1363.17 58.7846 1362.8 60.0824C1361.18 65.4486 1354.43 63.1274 1350.69 61.8295C1347.63 60.7314 1334.95 57.0624 1331.77 56.0142C1330.62 55.6398 1329.55 54.7163 1329.2 53.5433C1328.73 51.921 1329.5 50.3735 1330.3 49.0008C1331.27 47.3286 1332.31 45.6813 1333.29 44.0091C1334.73 41.4882 1336.17 38.9674 1337.64 36.4466C1338.89 34.2752 1340.13 32.1038 1341.38 29.9573C1342.08 28.7593 1342.7 27.5363 1343.25 26.2634C1343.42 25.8891 1343.52 25.5896 1343.42 25.1653C1343.35 24.8658 1343.22 24.6162 1342.95 24.4664C1341.93 23.9672 1341.16 24.9905 1340.58 25.6894C1339.79 26.6129 1338.99 27.5613 1338.22 28.5097L1338.12 28.4598Z" fill="white"/>
<path d="M1382.91 105.295L1371.84 86.0791L1356.72 94.8271L1367.79 114.043L1382.91 105.295Z" fill="#0F3D4C"/>
</g>
<g style="mix-blend-mode:overlay" opacity="0.6">
<path d="M268.166 -14.9442L306.454 -52.4901L352.404 -75.8682L400.632 -84.2971L431.705 -39.4752L448.284 -0.0462799L433.406 32.1963L446.019 43.3281L469.749 79.926L445.073 110.67L408.729 129.411L365.401 132.729L346.571 96.1434L333.382 83.6921L275.445 36.5388L268.166 -14.9442Z" fill="white"/>
<path d="M281.688 -23.2963C282.954 -24.0008 300.441 -40.9868 333.395 -54.8471C351.688 -62.5459 368.715 -64.8901 379.307 -63.7628C389.899 -62.6355 393.289 -58.9591 395.975 -54.4244C398.662 -49.8897 437.794 17.1574 437.794 17.1574L399.225 59.4558L354.438 75.0198L310.368 70.4979L275.47 28.7632L269.535 -4.76034L281.688 -23.2963Z" fill="#6CC1E3"/>
<path d="M402.039 63.5805C402.039 63.5805 411.006 58.8024 419.68 59.3788C428.353 59.9553 434.135 65.1689 436.169 68.0639C438.203 70.959 451.93 86.1644 451.648 91.8135C451.367 97.4627 416.366 129.321 416.366 129.321C416.366 129.321 401.323 129.757 389.758 128.591C378.194 127.438 374.868 121.93 371.388 114.116C367.921 106.302 366.361 96.7197 370.697 90.1995C375.034 83.6792 402.039 63.5805 402.039 63.5805Z" fill="#6CC1E3"/>
<path d="M456.816 44.1351C452.07 38.4603 447.785 35.1553 444.868 33.3235C442.936 32.1065 442.489 29.4805 443.934 27.7127L455.678 13.3912C458.402 8.97182 458.479 -2.07033 456.253 -6.75876L452.544 -14.5728C451.341 -17.0964 451.622 -20.0811 453.273 -22.3356L460.424 -32.0968C462.343 -34.7228 462.534 -38.2327 460.91 -41.0381L446.058 -66.6964C443.768 -70.6546 439.393 -72.9348 434.839 -72.5249L419.283 -71.1286L413.207 -84.0666C413.207 -84.0666 405.02 -91.1121 400.683 -91.4964C396.346 -91.8679 386.739 -94.3274 358.302 -87.1538C339.497 -82.4141 329.416 -77.098 324.747 -74.0365C322.828 -72.7811 320.257 -73.3447 319.054 -75.3046L313.886 -83.7464C313.234 -84.7968 311.865 -85.1427 310.803 -84.5022L301.912 -79.1348C300.812 -78.4687 300.454 -77.0212 301.132 -75.9195L306.364 -67.3881C307.592 -65.3769 307.017 -62.7381 305.047 -61.4443L285.986 -48.8778L267.91 -30.3931C267.91 -30.3931 251.523 -10.9604 252.086 1.29868C252.457 9.44579 255.988 15.5817 258.329 18.797C259.441 20.3342 259.262 22.4478 257.958 23.8057L251.715 30.2875C248.133 34.0152 247.404 39.6516 249.937 44.1607L264.904 70.9078C266.503 73.7772 269.624 75.4553 272.899 75.2119L286.011 74.2383C288.685 74.0334 291.269 75.276 292.791 77.4792L298.791 86.1644C302.181 91.0706 307.925 93.8119 313.861 93.3379L335.352 91.6598C336.849 91.5445 338.128 92.7231 338.128 94.2346C338.128 97.8086 338.281 104.214 339.305 109.927C340.814 118.42 352.673 136.52 352.673 136.52L366.425 139.543L420.102 125.773L446.659 105.969L472.461 68.0512C472.461 68.0512 465.49 54.4727 456.829 44.0966L456.816 44.1351ZM351.739 68.3714C331.706 73.6107 324.21 68.5123 317.852 64.9768C311.494 61.4412 297.09 47.0173 287.06 26.9185C283.504 19.7962 280.549 13.5193 278.221 8.39538C273.296 -2.45463 274.997 -15.1621 282.685 -24.2571C286.421 -28.6893 291.384 -33.698 297.934 -39.0013C320.116 -56.9608 348.08 -68.8484 368.715 -74.3695C380.177 -77.4311 388.07 -77.841 392.803 -77.5848C396.09 -77.4183 399.071 -75.6121 400.76 -72.7939L441.99 -3.68438C444.024 -0.26413 444.037 3.98876 441.99 7.409C438.242 13.7115 431.065 24.0235 420.115 32.7086C403.024 46.2871 371.759 63.1193 351.713 68.3586L351.739 68.3714ZM437.653 105.43C419.424 120.431 406.67 125.055 397.677 127.643C389.976 129.859 381.788 125.747 379.307 123.403C375.443 119.739 369.725 114.064 371.286 100.627C372.834 87.1892 379.025 83.5127 379.025 83.5127C379.025 83.5127 399.506 69.0888 414.345 58.3284C428.673 47.9396 426.639 41.3553 434.263 45.2495C441.248 48.8107 445.277 51.821 449.102 56.4966C452.109 60.1731 458.786 71.8301 461.485 76.621C462.24 77.9404 462.151 79.5673 461.281 80.8226C458.492 84.8578 451.264 94.2346 437.653 105.443V105.43Z" fill="#0F3D4C"/>
<path d="M331.921 11.1767C328.682 5.55837 321.507 3.63338 315.897 6.87714C310.286 10.1209 308.364 17.3051 311.603 22.9234L321.824 40.6512C325.064 46.2695 332.238 48.1945 337.849 44.9508C343.459 41.707 345.382 34.5228 342.142 28.9045L331.921 11.1767Z" fill="#0F3D4C"/>
<path d="M394.638 -25.8811C391.398 -31.4995 384.224 -33.4245 378.613 -30.1807C373.003 -26.937 371.08 -19.7528 374.32 -14.1344L384.541 3.59332C387.78 9.21168 394.954 11.1367 400.565 7.89291C406.176 4.64915 408.098 -2.53502 404.859 -8.15338L394.638 -25.8811Z" fill="#0F3D4C"/>
<path d="M355.513 -144.171C343.846 -144.171 332.499 -142.8 321.613 -140.212C324.491 -135.87 326.602 -130.964 327.74 -125.699C336.695 -127.633 345.982 -128.671 355.513 -128.671C427.956 -128.671 486.891 -69.6554 486.891 2.88719C486.891 75.4297 427.956 134.445 355.513 134.445C283.069 134.445 224.134 75.4297 224.134 2.88719C224.134 -30.6876 236.76 -61.3545 257.51 -84.6174C253.595 -88.1273 250.32 -92.3417 247.903 -97.0686C223.559 -70.8083 208.655 -35.6707 208.655 2.90001C208.655 83.9868 274.537 149.958 355.513 149.958C436.489 149.958 502.37 83.9868 502.37 2.90001C502.37 -78.1868 436.489 -144.171 355.513 -144.171Z" fill="#0F3D4C"/>
</g>
<g style="mix-blend-mode:overlay" opacity="0.6">
<path d="M24.1401 429.434L51.6983 402.425L84.7718 385.608L119.484 379.544L141.849 411.787L153.782 440.151L143.074 463.345L152.153 471.352L169.233 497.679L151.471 519.795L125.313 533.276L94.1266 535.663L80.5731 509.345L71.0802 500.388L29.3792 466.468L24.1401 429.434Z" fill="white"/>
<path d="M33.8725 423.426C34.784 422.919 47.3707 410.7 71.0894 400.73C84.2562 395.191 96.5114 393.505 104.135 394.316C111.759 395.127 114.199 397.772 116.133 401.034C118.066 404.296 146.232 452.526 146.232 452.526L118.471 482.954L86.2358 494.15L54.5158 490.897L29.3976 460.875L25.1253 436.76L33.8725 423.426Z" fill="#6CC1E3"/>
<path d="M120.497 485.921C120.497 485.921 126.952 482.484 133.194 482.898C139.437 483.313 143.599 487.064 145.063 489.146C146.527 491.229 156.407 502.167 156.204 506.231C156.001 510.294 130.81 533.212 130.81 533.212C130.81 533.212 119.981 533.525 111.658 532.686C103.334 531.857 100.94 527.895 98.4358 522.274C95.9405 516.653 94.8172 509.76 97.9386 505.069C101.06 500.379 120.497 485.921 120.497 485.921Z" fill="#6CC1E3"/>
<path d="M159.924 471.933C156.508 467.85 153.423 465.473 151.324 464.155C149.934 463.28 149.611 461.391 150.652 460.119L159.104 449.817C161.066 446.638 161.121 438.694 159.519 435.322L156.848 429.701C155.983 427.885 156.186 425.738 157.373 424.117L162.52 417.095C163.901 415.206 164.04 412.681 162.87 410.663L152.18 392.205C150.532 389.358 147.383 387.718 144.105 388.013L132.909 389.017L128.535 379.71C128.535 379.71 122.642 374.642 119.521 374.365C116.4 374.098 109.485 372.329 89.0165 377.489C75.4814 380.899 68.2258 384.723 64.8651 386.925C63.4839 387.828 61.6332 387.423 60.7677 386.013L57.0479 379.94C56.5783 379.185 55.5931 378.936 54.8289 379.397L48.4296 383.258C47.6378 383.737 47.38 384.778 47.868 385.571L51.6338 391.708C52.5178 393.155 52.1034 395.053 50.6855 395.984L36.9662 405.023L23.9559 418.32C23.9559 418.32 12.1611 432.299 12.5662 441.118C12.8332 446.979 15.3745 451.393 17.0595 453.706C17.8606 454.811 17.7316 456.332 16.7925 457.309L12.2992 461.971C9.72108 464.653 9.19625 468.707 11.0193 471.951L21.7922 491.192C22.9431 493.256 25.1898 494.463 27.5469 494.288L36.9846 493.588C38.909 493.44 40.7689 494.334 41.8646 495.919L46.183 502.167C48.623 505.696 52.7572 507.668 57.0295 507.327L72.4981 506.12C73.5754 506.037 74.4962 506.885 74.4962 507.972C74.4962 510.543 74.6067 515.15 75.3433 519.26C76.4298 525.37 84.9651 538.39 84.9651 538.39L94.8633 540.565L133.498 530.659L152.613 516.413L171.185 489.137C171.185 489.137 166.167 479.369 159.933 471.905L159.924 471.933ZM84.293 489.367C69.874 493.136 64.4784 489.468 59.9022 486.925C55.3261 484.382 44.9584 474.006 37.7396 459.548C35.18 454.424 33.053 449.909 31.3772 446.223C27.8323 438.418 29.0569 429.277 34.5907 422.734C37.2793 419.546 40.8518 415.943 45.5661 412.128C61.5319 399.209 81.6596 390.657 96.5114 386.686C104.761 384.483 110.442 384.188 113.849 384.373C116.216 384.493 118.361 385.792 119.576 387.819L149.252 437.533C150.716 439.994 150.725 443.053 149.252 445.514C146.554 450.047 141.389 457.465 133.507 463.713C121.206 473.481 98.7028 485.589 84.2746 489.358L84.293 489.367ZM146.131 516.026C133.01 526.816 123.83 530.143 117.357 532.004C111.814 533.599 105.922 530.641 104.135 528.954C101.355 526.319 97.2388 522.237 98.3621 512.57C99.4762 502.904 103.933 500.259 103.933 500.259C103.933 500.259 118.674 489.883 129.355 482.143C139.667 474.669 138.203 469.933 143.691 472.734C148.718 475.296 151.619 477.461 154.372 480.825C156.535 483.47 161.342 491.855 163.285 495.301C163.828 496.251 163.763 497.421 163.137 498.324C161.13 501.227 155.928 507.972 146.131 516.035V516.026Z" fill="#0F3D4C"/>
<path d="M70.0288 448.224C67.6972 444.182 62.5334 442.798 58.495 445.131C54.4566 447.464 53.073 452.632 55.4045 456.674L62.7613 469.426C65.0929 473.468 70.2568 474.853 74.2951 472.519C78.3335 470.186 79.7172 465.018 77.3856 460.976L70.0288 448.224Z" fill="#0F3D4C"/>
<path d="M115.17 421.566C112.838 417.525 107.674 416.14 103.636 418.473C99.5977 420.807 98.2141 425.975 100.546 430.016L107.902 442.769C110.234 446.81 115.398 448.195 119.436 445.862C123.475 443.528 124.858 438.36 122.527 434.319L115.17 421.566Z" fill="#0F3D4C"/>
<path d="M87.0092 336.474C78.6119 336.474 70.4448 337.46 62.6092 339.322C64.6809 342.445 66.2002 345.975 67.0196 349.762C73.4649 348.371 80.1496 347.624 87.0092 347.624C139.152 347.624 181.571 390.077 181.571 442.261C181.571 494.445 139.152 536.898 87.0092 536.898C34.8669 536.898 -7.55229 494.445 -7.55229 442.261C-7.55229 418.109 1.53556 396.048 16.4702 379.314C13.6527 376.789 11.2956 373.758 9.55533 370.357C-7.96663 389.248 -18.6934 414.524 -18.6934 442.27C-18.6934 500.6 28.7254 548.057 87.0092 548.057C145.293 548.057 192.712 500.6 192.712 442.27C192.712 383.94 145.293 336.474 87.0092 336.474Z" fill="#0F3D4C"/>
<path d="M38.1816 380.493C51.2861 380.493 61.9094 369.862 61.9094 356.747C61.9094 343.632 51.2861 333 38.1816 333C25.0771 333 14.4537 343.632 14.4537 356.747C14.4537 369.862 25.0771 380.493 38.1816 380.493Z" fill="#0F3D4C"/>
<path fill-rule="evenodd" clip-rule="evenodd" d="M38.9826 353.107C38.5499 353.623 38.1263 354.148 37.712 354.673C36.9293 355.659 36.1467 356.682 35.318 357.65C34.5722 358.534 33.9001 359.493 33.1542 360.377C32.3532 361.336 31.3219 362.405 29.9776 362.414C28.0717 362.423 26.6353 362.617 25.2081 362.506C23.7718 362.386 23.9651 361.382 24.7938 360.626C25.6225 359.88 34.8761 352.084 34.8761 352.084L40.6952 347.329C41.2016 346.933 41.7081 346.527 42.2237 346.131C42.5644 345.864 42.8958 345.569 43.2733 345.357C43.7061 345.108 44.2401 344.896 44.7373 345.044C45.4555 345.246 45.7041 346.094 45.8146 346.739C46.0356 348.002 46.2198 349.273 46.4039 350.545C46.6525 352.222 46.8827 353.908 47.1221 355.586C47.3247 357.078 47.5364 358.571 47.739 360.064C47.8863 361.142 48.1257 362.22 48.2178 363.308C48.2546 363.796 48.2454 364.303 48.1073 364.782C47.5088 366.763 45.0136 365.906 43.6324 365.427C42.4999 365.022 37.8133 363.667 36.6347 363.28C36.2112 363.142 35.8152 362.801 35.6863 362.368C35.5114 361.769 35.7968 361.197 36.0915 360.691C36.4506 360.073 36.8373 359.465 37.1964 358.848C37.7304 357.917 38.2644 356.986 38.8077 356.056C39.2681 355.254 39.7284 354.452 40.1888 353.66C40.4466 353.217 40.6768 352.766 40.8794 352.296C40.9438 352.158 40.9807 352.047 40.9438 351.89C40.9162 351.78 40.8702 351.688 40.7689 351.632C40.3914 351.448 40.1059 351.826 39.8942 352.084C39.5995 352.425 39.3049 352.775 39.0195 353.125L38.9826 353.107Z" fill="white"/>
<path d="M55.5441 381.475L51.4514 374.38L45.8616 377.61L49.9544 384.705L55.5441 381.475Z" fill="#0F3D4C"/>
</g>
</g>
<defs>
<clipPath id="clip0_45_1034">
<rect width="1728" height="512" fill="white"/>
</clipPath>
</defs>
</svg>
