<svg width="526" height="84" viewBox="0 0 526 84" fill="none" xmlns="http://www.w3.org/2000/svg">
<path d="M69 23L444 23" stroke="#A0AEC0" stroke-width="3" stroke-linecap="round"/>
<path d="M46.0462 28V19.136L44.2062 19.568V18L46.9102 16.8H48.1742V28H46.0462Z" fill="#A0AEC0"/>
<circle cx="46.5" cy="22" r="21" stroke="#A0AEC0" stroke-width="2"/>
<path d="M5.89062 66.6328L2.125 77H0.585938L4.92188 65.625H5.91406L5.89062 66.6328ZM9.04688 77L5.27344 66.6328L5.25 65.625H6.24219L10.5938 77H9.04688ZM8.85156 72.7891V74.0234H2.46094V72.7891H8.85156ZM17.575 68.5469H18.8875V76.8203C18.8875 77.5651 18.7365 78.2005 18.4344 78.7266C18.1323 79.2526 17.7104 79.651 17.1687 79.9219C16.6323 80.1979 16.0125 80.3359 15.3094 80.3359C15.0177 80.3359 14.674 80.2891 14.2781 80.1953C13.8875 80.1068 13.5021 79.9531 13.1219 79.7344C12.7469 79.5208 12.4318 79.2318 12.1766 78.8672L12.9344 78.0078C13.2885 78.4349 13.6583 78.7318 14.0437 78.8984C14.4344 79.0651 14.8198 79.1484 15.2 79.1484C15.6583 79.1484 16.0542 79.0625 16.3875 78.8906C16.7208 78.7188 16.9786 78.4635 17.1609 78.125C17.3484 77.7917 17.4422 77.3802 17.4422 76.8906V70.4062L17.575 68.5469ZM11.7547 72.8672V72.7031C11.7547 72.0573 11.8302 71.4714 11.9812 70.9453C12.1375 70.4141 12.3589 69.9583 12.6453 69.5781C12.937 69.1979 13.2885 68.9062 13.7 68.7031C14.1115 68.4948 14.575 68.3906 15.0906 68.3906C15.6219 68.3906 16.0854 68.4844 16.4812 68.6719C16.8823 68.8542 17.2208 69.1224 17.4969 69.4766C17.7781 69.8255 17.9995 70.2474 18.1609 70.7422C18.3224 71.237 18.4344 71.7969 18.4969 72.4219V73.1406C18.4396 73.7604 18.3276 74.3177 18.1609 74.8125C17.9995 75.3073 17.7781 75.7292 17.4969 76.0781C17.2208 76.4271 16.8823 76.6953 16.4812 76.8828C16.0802 77.0651 15.6115 77.1562 15.075 77.1562C14.5698 77.1562 14.1115 77.0495 13.7 76.8359C13.2937 76.6224 12.9448 76.3229 12.6531 75.9375C12.3615 75.5521 12.1375 75.099 11.9812 74.5781C11.8302 74.0521 11.7547 73.4818 11.7547 72.8672ZM13.2 72.7031V72.8672C13.2 73.2891 13.2417 73.6849 13.325 74.0547C13.4135 74.4245 13.5464 74.75 13.7234 75.0312C13.9057 75.3125 14.1375 75.5339 14.4187 75.6953C14.7 75.8516 15.0359 75.9297 15.4266 75.9297C15.9057 75.9297 16.3016 75.8281 16.6141 75.625C16.9266 75.4219 17.174 75.1536 17.3562 74.8203C17.5437 74.487 17.6896 74.125 17.7937 73.7344V71.8516C17.7365 71.5651 17.6479 71.2891 17.5281 71.0234C17.4135 70.7526 17.2625 70.513 17.075 70.3047C16.8927 70.0911 16.6661 69.9219 16.3953 69.7969C16.1245 69.6719 15.8068 69.6094 15.4422 69.6094C15.0464 69.6094 14.7052 69.6927 14.4187 69.8594C14.1375 70.0208 13.9057 70.2448 13.7234 70.5312C13.5464 70.8125 13.4135 71.1406 13.325 71.5156C13.2417 71.8854 13.2 72.2812 13.2 72.7031ZM22.7281 69.875V77H21.2828V68.5469H22.6891L22.7281 69.875ZM25.3687 68.5L25.3609 69.8438C25.2411 69.8177 25.1266 69.8021 25.0172 69.7969C24.913 69.7865 24.7932 69.7812 24.6578 69.7812C24.3245 69.7812 24.0302 69.8333 23.775 69.9375C23.5198 70.0417 23.3036 70.1875 23.1266 70.375C22.9495 70.5625 22.8089 70.7865 22.7047 71.0469C22.6057 71.3021 22.5406 71.5833 22.5094 71.8906L22.1031 72.125C22.1031 71.6146 22.1526 71.1354 22.2516 70.6875C22.3557 70.2396 22.5146 69.8438 22.7281 69.5C22.9417 69.151 23.2125 68.8802 23.5406 68.6875C23.874 68.4896 24.2698 68.3906 24.7281 68.3906C24.8323 68.3906 24.9521 68.4036 25.0875 68.4297C25.2229 68.4505 25.3167 68.474 25.3687 68.5ZM30.2563 77.1562C29.6677 77.1562 29.1339 77.0573 28.6547 76.8594C28.1807 76.6562 27.7719 76.3724 27.4281 76.0078C27.0896 75.6432 26.8292 75.2109 26.6469 74.7109C26.4646 74.2109 26.3734 73.6641 26.3734 73.0703V72.7422C26.3734 72.0547 26.475 71.4427 26.6781 70.9062C26.8813 70.3646 27.1573 69.9062 27.5063 69.5312C27.8552 69.1562 28.251 68.8724 28.6938 68.6797C29.1365 68.487 29.5948 68.3906 30.0688 68.3906C30.6729 68.3906 31.1938 68.4948 31.6313 68.7031C32.074 68.9115 32.4359 69.2031 32.7172 69.5781C32.9984 69.9479 33.2068 70.3854 33.3422 70.8906C33.4776 71.3906 33.5453 71.9375 33.5453 72.5312V73.1797H27.2328V72H32.1V71.8906C32.0792 71.5156 32.001 71.151 31.8656 70.7969C31.7354 70.4427 31.5271 70.151 31.2406 69.9219C30.9542 69.6927 30.5635 69.5781 30.0688 69.5781C29.7406 69.5781 29.4385 69.6484 29.1625 69.7891C28.8865 69.9245 28.6495 70.1276 28.4516 70.3984C28.2536 70.6693 28.1 71 27.9906 71.3906C27.8813 71.7812 27.8266 72.2318 27.8266 72.7422V73.0703C27.8266 73.4714 27.8813 73.849 27.9906 74.2031C28.1052 74.5521 28.2693 74.8594 28.4828 75.125C28.7016 75.3906 28.9646 75.599 29.2719 75.75C29.5844 75.901 29.9385 75.9766 30.3344 75.9766C30.8448 75.9766 31.2771 75.8724 31.6313 75.6641C31.9854 75.4557 32.2953 75.1771 32.5609 74.8281L33.4359 75.5234C33.2536 75.7995 33.0219 76.0625 32.7406 76.3125C32.4594 76.5625 32.113 76.7656 31.7016 76.9219C31.2953 77.0781 30.8135 77.1562 30.2563 77.1562ZM38.9406 77.1562C38.3521 77.1562 37.8182 77.0573 37.3391 76.8594C36.8651 76.6562 36.4562 76.3724 36.1125 76.0078C35.774 75.6432 35.5135 75.2109 35.3312 74.7109C35.149 74.2109 35.0578 73.6641 35.0578 73.0703V72.7422C35.0578 72.0547 35.1594 71.4427 35.3625 70.9062C35.5656 70.3646 35.8417 69.9062 36.1906 69.5312C36.5396 69.1562 36.9354 68.8724 37.3781 68.6797C37.8208 68.487 38.2792 68.3906 38.7531 68.3906C39.3573 68.3906 39.8781 68.4948 40.3156 68.7031C40.7583 68.9115 41.1203 69.2031 41.4016 69.5781C41.6828 69.9479 41.8911 70.3854 42.0266 70.8906C42.162 71.3906 42.2297 71.9375 42.2297 72.5312V73.1797H35.9172V72H40.7844V71.8906C40.7635 71.5156 40.6854 71.151 40.55 70.7969C40.4198 70.4427 40.2115 70.151 39.925 69.9219C39.6385 69.6927 39.2479 69.5781 38.7531 69.5781C38.425 69.5781 38.1229 69.6484 37.8469 69.7891C37.5708 69.9245 37.3339 70.1276 37.1359 70.3984C36.938 70.6693 36.7844 71 36.675 71.3906C36.5656 71.7812 36.5109 72.2318 36.5109 72.7422V73.0703C36.5109 73.4714 36.5656 73.849 36.675 74.2031C36.7896 74.5521 36.9536 74.8594 37.1672 75.125C37.3859 75.3906 37.649 75.599 37.9562 75.75C38.2687 75.901 38.6229 75.9766 39.0187 75.9766C39.5292 75.9766 39.9615 75.8724 40.3156 75.6641C40.6698 75.4557 40.9797 75.1771 41.2453 74.8281L42.1203 75.5234C41.938 75.7995 41.7062 76.0625 41.425 76.3125C41.1437 76.5625 40.7974 76.7656 40.3859 76.9219C39.9797 77.0781 39.4979 77.1562 38.9406 77.1562ZM52.3953 65.625V77H50.9109V65.625H52.3953ZM56.0516 65.625V66.8594H47.2625V65.625H56.0516ZM60.4469 77.1562C59.8583 77.1562 59.3245 77.0573 58.8453 76.8594C58.3714 76.6562 57.9625 76.3724 57.6188 76.0078C57.2802 75.6432 57.0198 75.2109 56.8375 74.7109C56.6552 74.2109 56.5641 73.6641 56.5641 73.0703V72.7422C56.5641 72.0547 56.6656 71.4427 56.8688 70.9062C57.0719 70.3646 57.3479 69.9062 57.6969 69.5312C58.0458 69.1562 58.4417 68.8724 58.8844 68.6797C59.3271 68.487 59.7854 68.3906 60.2594 68.3906C60.8635 68.3906 61.3844 68.4948 61.8219 68.7031C62.2646 68.9115 62.6266 69.2031 62.9078 69.5781C63.1891 69.9479 63.3974 70.3854 63.5328 70.8906C63.6682 71.3906 63.7359 71.9375 63.7359 72.5312V73.1797H57.4234V72H62.2906V71.8906C62.2698 71.5156 62.1917 71.151 62.0563 70.7969C61.926 70.4427 61.7177 70.151 61.4313 69.9219C61.1448 69.6927 60.7542 69.5781 60.2594 69.5781C59.9313 69.5781 59.6292 69.6484 59.3531 69.7891C59.0771 69.9245 58.8401 70.1276 58.6422 70.3984C58.4443 70.6693 58.2906 71 58.1813 71.3906C58.0719 71.7812 58.0172 72.2318 58.0172 72.7422V73.0703C58.0172 73.4714 58.0719 73.849 58.1813 74.2031C58.2958 74.5521 58.4599 74.8594 58.6734 75.125C58.8922 75.3906 59.1552 75.599 59.4625 75.75C59.775 75.901 60.1292 75.9766 60.525 75.9766C61.0354 75.9766 61.4677 75.8724 61.8219 75.6641C62.176 75.4557 62.4859 75.1771 62.7516 74.8281L63.6266 75.5234C63.4443 75.7995 63.2125 76.0625 62.9313 76.3125C62.65 76.5625 62.3036 76.7656 61.8922 76.9219C61.4859 77.0781 61.0042 77.1562 60.4469 77.1562ZM67.0687 69.875V77H65.6234V68.5469H67.0297L67.0687 69.875ZM69.7094 68.5L69.7016 69.8438C69.5818 69.8177 69.4672 69.8021 69.3578 69.7969C69.2536 69.7865 69.1339 69.7812 68.9984 69.7812C68.6651 69.7812 68.3708 69.8333 68.1156 69.9375C67.8604 70.0417 67.6443 70.1875 67.4672 70.375C67.2901 70.5625 67.1495 70.7865 67.0453 71.0469C66.9464 71.3021 66.8812 71.5833 66.85 71.8906L66.4437 72.125C66.4437 71.6146 66.4932 71.1354 66.5922 70.6875C66.6964 70.2396 66.8552 69.8438 67.0687 69.5C67.2823 69.151 67.5531 68.8802 67.8812 68.6875C68.2146 68.4896 68.6104 68.3906 69.0687 68.3906C69.1729 68.3906 69.2927 68.4036 69.4281 68.4297C69.5635 68.4505 69.6573 68.474 69.7094 68.5ZM72.6828 70.2266V77H71.2297V68.5469H72.6047L72.6828 70.2266ZM72.3859 72.4531L71.7141 72.4297C71.7193 71.8516 71.7948 71.3177 71.9406 70.8281C72.0865 70.3333 72.3026 69.9036 72.5891 69.5391C72.8755 69.1745 73.2323 68.8932 73.6594 68.6953C74.0865 68.4922 74.5813 68.3906 75.1438 68.3906C75.5396 68.3906 75.9042 68.4479 76.2375 68.5625C76.5708 68.6719 76.8599 68.8464 77.1047 69.0859C77.3495 69.3255 77.5396 69.6328 77.675 70.0078C77.8104 70.3828 77.8781 70.8359 77.8781 71.3672V77H76.4328V71.4375C76.4328 70.9948 76.3573 70.6406 76.2063 70.375C76.0604 70.1094 75.8521 69.9167 75.5813 69.7969C75.3104 69.6719 74.9927 69.6094 74.6281 69.6094C74.201 69.6094 73.8443 69.6849 73.5578 69.8359C73.2714 69.987 73.0422 70.1953 72.8703 70.4609C72.6984 70.7266 72.5734 71.0312 72.4953 71.375C72.4224 71.7135 72.3859 72.0729 72.3859 72.4531ZM77.8625 71.6562L76.8938 71.9531C76.899 71.4896 76.9745 71.0443 77.1203 70.6172C77.2714 70.1901 77.4875 69.8099 77.7688 69.4766C78.0552 69.1432 78.4068 68.8802 78.8234 68.6875C79.2401 68.4896 79.7167 68.3906 80.2531 68.3906C80.7063 68.3906 81.1073 68.4505 81.4563 68.5703C81.8104 68.6901 82.1073 68.875 82.3469 69.125C82.5917 69.3698 82.7766 69.6849 82.9016 70.0703C83.0266 70.4557 83.0891 70.9141 83.0891 71.4453V77H81.6359V71.4297C81.6359 70.9557 81.5604 70.5885 81.4094 70.3281C81.2635 70.0625 81.0552 69.8776 80.7844 69.7734C80.5188 69.6641 80.201 69.6094 79.8313 69.6094C79.5135 69.6094 79.2323 69.6641 78.9875 69.7734C78.7427 69.8828 78.537 70.0339 78.3703 70.2266C78.2036 70.4141 78.076 70.6302 77.9875 70.875C77.9042 71.1198 77.8625 71.3802 77.8625 71.6562ZM90.3984 74.7578C90.3984 74.5495 90.3516 74.3568 90.2578 74.1797C90.1693 73.9974 89.9844 73.8333 89.7031 73.6875C89.4271 73.5365 89.0104 73.4062 88.4531 73.2969C87.9844 73.1979 87.5599 73.0807 87.1797 72.9453C86.8047 72.8099 86.4844 72.6458 86.2188 72.4531C85.9583 72.2604 85.7578 72.0339 85.6172 71.7734C85.4766 71.513 85.4062 71.2083 85.4062 70.8594C85.4062 70.526 85.4792 70.2109 85.625 69.9141C85.776 69.6172 85.987 69.3542 86.2578 69.125C86.5339 68.8958 86.8646 68.7161 87.25 68.5859C87.6354 68.4557 88.0651 68.3906 88.5391 68.3906C89.2161 68.3906 89.7943 68.5104 90.2734 68.75C90.7526 68.9896 91.1198 69.3099 91.375 69.7109C91.6302 70.1068 91.7578 70.5469 91.7578 71.0312H90.3125C90.3125 70.7969 90.2422 70.5703 90.1016 70.3516C89.9661 70.1276 89.7656 69.9427 89.5 69.7969C89.2396 69.651 88.9193 69.5781 88.5391 69.5781C88.138 69.5781 87.8125 69.6406 87.5625 69.7656C87.3177 69.8854 87.138 70.0391 87.0234 70.2266C86.9141 70.4141 86.8594 70.612 86.8594 70.8203C86.8594 70.9766 86.8854 71.1172 86.9375 71.2422C86.9948 71.362 87.0938 71.474 87.2344 71.5781C87.375 71.6771 87.5729 71.7708 87.8281 71.8594C88.0833 71.9479 88.4089 72.0365 88.8047 72.125C89.4974 72.2812 90.0677 72.4688 90.5156 72.6875C90.9635 72.9062 91.2969 73.1745 91.5156 73.4922C91.7344 73.8099 91.8438 74.1953 91.8438 74.6484C91.8438 75.0182 91.7656 75.3568 91.6094 75.6641C91.4583 75.9714 91.237 76.237 90.9453 76.4609C90.6589 76.6797 90.3151 76.8516 89.9141 76.9766C89.5182 77.0964 89.0729 77.1562 88.5781 77.1562C87.8333 77.1562 87.2031 77.0234 86.6875 76.7578C86.1719 76.4922 85.7812 76.1484 85.5156 75.7266C85.25 75.3047 85.1172 74.8594 85.1172 74.3906H86.5703C86.5911 74.7865 86.7057 75.1016 86.9141 75.3359C87.1224 75.5651 87.3776 75.7292 87.6797 75.8281C87.9818 75.9219 88.2812 75.9688 88.5781 75.9688C88.974 75.9688 89.3047 75.9167 89.5703 75.8125C89.8411 75.7083 90.0469 75.5651 90.1875 75.3828C90.3281 75.2005 90.3984 74.9922 90.3984 74.7578Z" fill="#A0AEC0"/>
<path d="M463.246 28V26.512C463.928 25.9467 464.59 25.3867 465.23 24.832C465.88 24.2773 466.456 23.728 466.958 23.184C467.47 22.64 467.875 22.112 468.174 21.6C468.483 21.0773 468.638 20.5707 468.638 20.08C468.638 19.6213 468.51 19.216 468.254 18.864C468.008 18.512 467.598 18.336 467.022 18.336C466.435 18.336 465.992 18.528 465.694 18.912C465.395 19.296 465.246 19.76 465.246 20.304H463.262C463.283 19.4827 463.464 18.8 463.806 18.256C464.147 17.7013 464.6 17.2907 465.166 17.024C465.731 16.7467 466.366 16.608 467.07 16.608C468.211 16.608 469.096 16.9227 469.726 17.552C470.366 18.1707 470.686 18.976 470.686 19.968C470.686 20.5867 470.542 21.1893 470.254 21.776C469.976 22.3627 469.608 22.928 469.15 23.472C468.691 24.016 468.195 24.528 467.662 25.008C467.128 25.4773 466.611 25.9147 466.11 26.32H470.958V28H463.246Z" fill="black"/>
<circle cx="467" cy="22" r="21" stroke="black" stroke-width="2"/>
<path d="M413.714 72.0859H410.792L410.777 70.3828H413.191C413.618 70.3828 413.964 70.3307 414.23 70.2266C414.501 70.1224 414.698 69.9714 414.823 69.7734C414.948 69.5703 415.011 69.3203 415.011 69.0234C415.011 68.6849 414.948 68.4115 414.823 68.2031C414.698 67.9948 414.501 67.8438 414.23 67.75C413.964 67.651 413.62 67.6016 413.198 67.6016H411.714V77H409.167V65.625H413.198C413.881 65.625 414.49 65.6875 415.027 65.8125C415.563 65.9375 416.019 66.1302 416.394 66.3906C416.774 66.651 417.063 66.9766 417.261 67.3672C417.459 67.7578 417.558 68.2188 417.558 68.75C417.558 69.2135 417.454 69.6458 417.245 70.0469C417.042 70.4479 416.714 70.7734 416.261 71.0234C415.808 71.2734 415.201 71.4089 414.441 71.4297L413.714 72.0859ZM413.612 77H410.144L411.066 75.0312H413.612C414.003 75.0312 414.321 74.9688 414.566 74.8438C414.81 74.7188 414.99 74.5495 415.105 74.3359C415.219 74.1224 415.277 73.8828 415.277 73.6172C415.277 73.3047 415.222 73.0339 415.112 72.8047C415.008 72.5755 414.842 72.3984 414.612 72.2734C414.389 72.1484 414.089 72.0859 413.714 72.0859H411.433L411.448 70.3828H414.237L414.831 71.0547C415.555 71.0391 416.133 71.1562 416.566 71.4062C417.003 71.651 417.318 71.974 417.511 72.375C417.704 72.776 417.8 73.2005 417.8 73.6484C417.8 74.388 417.641 75.0078 417.323 75.5078C417.006 76.0026 416.534 76.375 415.909 76.625C415.29 76.875 414.524 77 413.612 77ZM419.272 72.8594V72.6953C419.272 72.0755 419.36 71.5052 419.537 70.9844C419.715 70.4583 419.975 70.0026 420.319 69.6172C420.662 69.2318 421.084 68.9323 421.584 68.7188C422.084 68.5 422.657 68.3906 423.303 68.3906C423.959 68.3906 424.537 68.5 425.037 68.7188C425.543 68.9323 425.967 69.2318 426.311 69.6172C426.655 70.0026 426.915 70.4583 427.092 70.9844C427.269 71.5052 427.358 72.0755 427.358 72.6953V72.8594C427.358 73.474 427.269 74.0443 427.092 74.5703C426.915 75.0911 426.655 75.5469 426.311 75.9375C425.967 76.3229 425.545 76.6224 425.045 76.8359C424.545 77.0495 423.97 77.1562 423.319 77.1562C422.673 77.1562 422.097 77.0495 421.592 76.8359C421.087 76.6224 420.662 76.3229 420.319 75.9375C419.975 75.5469 419.715 75.0911 419.537 74.5703C419.36 74.0443 419.272 73.474 419.272 72.8594ZM421.717 72.6953V72.8594C421.717 73.1927 421.743 73.5052 421.795 73.7969C421.853 74.0885 421.944 74.3438 422.069 74.5625C422.194 74.7812 422.358 74.9531 422.561 75.0781C422.769 75.1979 423.022 75.2578 423.319 75.2578C423.616 75.2578 423.866 75.1979 424.069 75.0781C424.272 74.9531 424.436 74.7812 424.561 74.5625C424.686 74.3438 424.774 74.0885 424.827 73.7969C424.884 73.5052 424.912 73.1927 424.912 72.8594V72.6953C424.912 72.3672 424.884 72.0599 424.827 71.7734C424.774 71.4818 424.686 71.224 424.561 71C424.436 70.776 424.269 70.6016 424.061 70.4766C423.858 70.3516 423.605 70.2891 423.303 70.2891C423.011 70.2891 422.764 70.3516 422.561 70.4766C422.358 70.6016 422.194 70.776 422.069 71C421.944 71.224 421.853 71.4818 421.795 71.7734C421.743 72.0599 421.717 72.3672 421.717 72.6953ZM433.236 68.5469V70.2578H428.22V68.5469H433.236ZM429.369 66.4531H431.814V74.3516C431.814 74.5859 431.843 74.7656 431.9 74.8906C431.957 75.0156 432.051 75.1042 432.181 75.1562C432.311 75.2031 432.478 75.2266 432.681 75.2266C432.827 75.2266 432.952 75.2214 433.056 75.2109C433.16 75.2005 433.257 75.1875 433.345 75.1719V76.9375C433.137 77.0052 432.916 77.0573 432.681 77.0938C432.447 77.1354 432.192 77.1562 431.916 77.1562C431.39 77.1562 430.934 77.0703 430.548 76.8984C430.168 76.7266 429.877 76.4557 429.673 76.0859C429.47 75.7109 429.369 75.224 429.369 74.625V66.4531ZM445.016 74C445.016 73.8073 444.987 73.6354 444.93 73.4844C444.872 73.3281 444.768 73.1849 444.617 73.0547C444.466 72.9245 444.253 72.7943 443.977 72.6641C443.701 72.5286 443.339 72.3906 442.891 72.25C442.38 72.0833 441.893 71.8958 441.43 71.6875C440.971 71.474 440.562 71.2266 440.203 70.9453C439.844 70.6641 439.56 70.3359 439.352 69.9609C439.148 69.5859 439.047 69.1484 439.047 68.6484C439.047 68.1641 439.154 67.7266 439.367 67.3359C439.581 66.9453 439.88 66.612 440.266 66.3359C440.651 66.0547 441.104 65.8411 441.625 65.6953C442.146 65.5443 442.719 65.4688 443.344 65.4688C444.177 65.4688 444.909 65.6172 445.539 65.9141C446.174 66.2057 446.669 66.6172 447.023 67.1484C447.378 67.6745 447.555 68.2865 447.555 68.9844H445.023C445.023 68.6771 444.958 68.4062 444.828 68.1719C444.703 67.9323 444.51 67.7448 444.25 67.6094C443.995 67.474 443.674 67.4062 443.289 67.4062C442.914 67.4062 442.599 67.4635 442.344 67.5781C442.094 67.6875 441.904 67.8385 441.773 68.0312C441.648 68.224 441.586 68.4349 441.586 68.6641C441.586 68.8464 441.633 69.013 441.727 69.1641C441.826 69.3099 441.966 69.4479 442.148 69.5781C442.336 69.7031 442.565 69.8229 442.836 69.9375C443.107 70.0521 443.417 70.1615 443.766 70.2656C444.375 70.4583 444.914 70.6719 445.383 70.9062C445.857 71.1406 446.255 71.4062 446.578 71.7031C446.901 72 447.143 72.3359 447.305 72.7109C447.471 73.0859 447.555 73.5104 447.555 73.9844C447.555 74.4896 447.456 74.9375 447.258 75.3281C447.065 75.7188 446.784 76.0521 446.414 76.3281C446.049 76.599 445.612 76.8047 445.102 76.9453C444.591 77.0859 444.021 77.1562 443.391 77.1562C442.818 77.1562 442.253 77.0833 441.695 76.9375C441.138 76.7865 440.633 76.5573 440.18 76.25C439.732 75.9427 439.372 75.5521 439.102 75.0781C438.836 74.599 438.703 74.0312 438.703 73.375H441.25C441.25 73.7188 441.299 74.0104 441.398 74.25C441.497 74.4844 441.638 74.6745 441.82 74.8203C442.008 74.9661 442.234 75.0703 442.5 75.1328C442.766 75.1953 443.062 75.2266 443.391 75.2266C443.771 75.2266 444.078 75.1745 444.312 75.0703C444.552 74.9609 444.729 74.8125 444.844 74.625C444.958 74.4375 445.016 74.2292 445.016 74ZM454.191 74.9609V68.5469H456.644V77H454.347L454.191 74.9609ZM454.448 73.2344L455.12 73.2188C455.12 73.7865 455.053 74.3099 454.917 74.7891C454.787 75.2682 454.589 75.6849 454.323 76.0391C454.063 76.3932 453.737 76.6693 453.347 76.8672C452.961 77.0599 452.511 77.1562 451.995 77.1562C451.579 77.1562 451.196 77.099 450.847 76.9844C450.503 76.8646 450.206 76.6797 449.956 76.4297C449.706 76.1745 449.514 75.849 449.378 75.4531C449.243 75.0521 449.175 74.5729 449.175 74.0156V68.5469H451.612V74.0312C451.612 74.25 451.639 74.4375 451.691 74.5938C451.748 74.7448 451.823 74.8698 451.917 74.9688C452.016 75.0677 452.136 75.1406 452.277 75.1875C452.422 75.2344 452.581 75.2578 452.753 75.2578C453.185 75.2578 453.524 75.1693 453.769 74.9922C454.019 74.8099 454.193 74.5677 454.292 74.2656C454.396 73.9583 454.448 73.6146 454.448 73.2344ZM458.537 65H460.975V74.9922L460.725 77H458.537V65ZM466.248 72.6797V72.8438C466.248 73.4844 466.181 74.0677 466.045 74.5938C465.915 75.1198 465.715 75.5755 465.444 75.9609C465.173 76.3411 464.832 76.6354 464.42 76.8438C464.009 77.0521 463.524 77.1562 462.967 77.1562C462.452 77.1562 462.009 77.0495 461.639 76.8359C461.269 76.6172 460.959 76.3151 460.709 75.9297C460.459 75.5443 460.256 75.0938 460.1 74.5781C459.949 74.0625 459.832 73.5078 459.748 72.9141V72.6328C459.832 72.0391 459.949 71.4844 460.1 70.9688C460.256 70.4531 460.459 70.0026 460.709 69.6172C460.959 69.2318 461.267 68.9323 461.631 68.7188C462.001 68.5 462.441 68.3906 462.952 68.3906C463.514 68.3906 464.001 68.4974 464.412 68.7109C464.829 68.9245 465.173 69.224 465.444 69.6094C465.715 69.9896 465.915 70.4427 466.045 70.9688C466.181 71.4896 466.248 72.0599 466.248 72.6797ZM463.811 72.8438V72.6797C463.811 72.3568 463.787 72.0521 463.741 71.7656C463.699 71.4792 463.623 71.2266 463.514 71.0078C463.41 70.7839 463.261 70.6094 463.069 70.4844C462.881 70.3542 462.639 70.2891 462.342 70.2891C462.051 70.2891 461.803 70.3385 461.6 70.4375C461.397 70.5365 461.233 70.6771 461.108 70.8594C460.983 71.0365 460.892 71.2526 460.834 71.5078C460.777 71.763 460.746 72.0469 460.741 72.3594V73.1875C460.746 73.6042 460.801 73.9688 460.905 74.2812C461.009 74.5938 461.178 74.8359 461.412 75.0078C461.647 75.1745 461.962 75.2578 462.358 75.2578C462.66 75.2578 462.905 75.2005 463.092 75.0859C463.285 74.9661 463.431 74.7995 463.53 74.5859C463.634 74.3724 463.707 74.1172 463.748 73.8203C463.79 73.5234 463.811 73.1979 463.811 72.8438ZM470.291 70.3203V77H467.853V68.5469H470.142L470.291 70.3203ZM469.978 72.4766L469.361 72.4922C469.361 71.8984 469.431 71.3542 469.572 70.8594C469.718 70.3594 469.929 69.9245 470.205 69.5547C470.481 69.1849 470.822 68.8984 471.228 68.6953C471.64 68.4922 472.114 68.3906 472.65 68.3906C473.025 68.3906 473.366 68.4479 473.673 68.5625C473.981 68.6719 474.244 68.8464 474.462 69.0859C474.686 69.3203 474.858 69.6276 474.978 70.0078C475.098 70.3828 475.158 70.8333 475.158 71.3594V77H472.72V71.6562C472.72 71.2812 472.673 70.9974 472.58 70.8047C472.491 70.6068 472.361 70.4714 472.189 70.3984C472.017 70.3255 471.811 70.2891 471.572 70.2891C471.311 70.2891 471.08 70.3464 470.877 70.4609C470.679 70.5703 470.512 70.724 470.377 70.9219C470.241 71.1198 470.14 71.3516 470.072 71.6172C470.009 71.8828 469.978 72.1693 469.978 72.4766ZM474.908 72.3516L474.134 72.4141C474.134 71.8411 474.202 71.3099 474.337 70.8203C474.473 70.3307 474.676 69.9062 474.947 69.5469C475.218 69.1823 475.554 68.8984 475.955 68.6953C476.361 68.4922 476.832 68.3906 477.369 68.3906C477.765 68.3906 478.124 68.4479 478.447 68.5625C478.775 68.6771 479.056 68.862 479.291 69.1172C479.53 69.3724 479.715 69.7083 479.845 70.125C479.976 70.5365 480.041 71.0417 480.041 71.6406V77H477.587V71.6406C477.587 71.2708 477.541 70.9896 477.447 70.7969C477.358 70.6042 477.228 70.4714 477.056 70.3984C476.89 70.3255 476.689 70.2891 476.455 70.2891C476.194 70.2891 475.968 70.3438 475.775 70.4531C475.582 70.5573 475.421 70.7031 475.291 70.8906C475.16 71.0729 475.064 71.2891 475.002 71.5391C474.939 71.7891 474.908 72.0599 474.908 72.3516ZM484.544 68.5469V77H482.098V68.5469H484.544ZM481.95 66.3594C481.95 66.0052 482.075 65.7161 482.325 65.4922C482.575 65.263 482.903 65.1484 483.309 65.1484C483.716 65.1484 484.044 65.263 484.294 65.4922C484.549 65.7161 484.677 66.0052 484.677 66.3594C484.677 66.7083 484.549 66.9974 484.294 67.2266C484.044 67.4505 483.716 67.5625 483.309 67.5625C482.903 67.5625 482.575 67.4505 482.325 67.2266C482.075 66.9974 481.95 66.7083 481.95 66.3594ZM491.102 74.6484C491.102 74.4922 491.052 74.3542 490.953 74.2344C490.859 74.1146 490.688 74.0052 490.438 73.9062C490.193 73.8073 489.846 73.7083 489.398 73.6094C488.977 73.5208 488.583 73.4062 488.219 73.2656C487.854 73.1198 487.536 72.9453 487.266 72.7422C486.995 72.5339 486.784 72.2891 486.633 72.0078C486.482 71.7214 486.406 71.3958 486.406 71.0312C486.406 70.6771 486.482 70.3411 486.633 70.0234C486.789 69.7057 487.013 69.4245 487.305 69.1797C487.602 68.9349 487.961 68.7422 488.383 68.6016C488.81 68.4609 489.294 68.3906 489.836 68.3906C490.581 68.3906 491.224 68.5078 491.766 68.7422C492.307 68.9714 492.724 69.2943 493.016 69.7109C493.307 70.1224 493.453 70.5938 493.453 71.125H491.016C491.016 70.9062 490.974 70.7161 490.891 70.5547C490.807 70.3932 490.68 70.2682 490.508 70.1797C490.336 70.0859 490.109 70.0391 489.828 70.0391C489.609 70.0391 489.417 70.0781 489.25 70.1562C489.089 70.2292 488.961 70.3307 488.867 70.4609C488.779 70.5911 488.734 70.7422 488.734 70.9141C488.734 71.0339 488.76 71.1432 488.812 71.2422C488.87 71.3359 488.956 71.4245 489.07 71.5078C489.19 71.5859 489.344 71.6562 489.531 71.7188C489.724 71.7812 489.958 71.8411 490.234 71.8984C490.823 72.0078 491.359 72.1615 491.844 72.3594C492.333 72.5573 492.724 72.8307 493.016 73.1797C493.312 73.5286 493.461 73.9896 493.461 74.5625C493.461 74.9375 493.375 75.2812 493.203 75.5938C493.036 75.9062 492.794 76.1797 492.477 76.4141C492.159 76.6484 491.779 76.8307 491.336 76.9609C490.893 77.0911 490.393 77.1562 489.836 77.1562C489.039 77.1562 488.365 77.013 487.812 76.7266C487.26 76.4401 486.844 76.0807 486.562 75.6484C486.286 75.2109 486.148 74.763 486.148 74.3047H488.438C488.448 74.5859 488.518 74.8151 488.648 74.9922C488.784 75.1693 488.958 75.2995 489.172 75.3828C489.385 75.4609 489.625 75.5 489.891 75.5C490.156 75.5 490.378 75.4635 490.555 75.3906C490.732 75.3177 490.867 75.2188 490.961 75.0938C491.055 74.9635 491.102 74.8151 491.102 74.6484ZM499.62 74.6484C499.62 74.4922 499.571 74.3542 499.472 74.2344C499.378 74.1146 499.206 74.0052 498.956 73.9062C498.711 73.8073 498.365 73.7083 497.917 73.6094C497.495 73.5208 497.102 73.4062 496.738 73.2656C496.373 73.1198 496.055 72.9453 495.784 72.7422C495.514 72.5339 495.303 72.2891 495.152 72.0078C495.001 71.7214 494.925 71.3958 494.925 71.0312C494.925 70.6771 495.001 70.3411 495.152 70.0234C495.308 69.7057 495.532 69.4245 495.823 69.1797C496.12 68.9349 496.48 68.7422 496.902 68.6016C497.329 68.4609 497.813 68.3906 498.355 68.3906C499.099 68.3906 499.743 68.5078 500.284 68.7422C500.826 68.9714 501.243 69.2943 501.534 69.7109C501.826 70.1224 501.972 70.5938 501.972 71.125H499.534C499.534 70.9062 499.493 70.7161 499.409 70.5547C499.326 70.3932 499.198 70.2682 499.027 70.1797C498.855 70.0859 498.628 70.0391 498.347 70.0391C498.128 70.0391 497.935 70.0781 497.769 70.1562C497.607 70.2292 497.48 70.3307 497.386 70.4609C497.297 70.5911 497.253 70.7422 497.253 70.9141C497.253 71.0339 497.279 71.1432 497.331 71.2422C497.389 71.3359 497.474 71.4245 497.589 71.5078C497.709 71.5859 497.863 71.6562 498.05 71.7188C498.243 71.7812 498.477 71.8411 498.753 71.8984C499.342 72.0078 499.878 72.1615 500.363 72.3594C500.852 72.5573 501.243 72.8307 501.534 73.1797C501.831 73.5286 501.98 73.9896 501.98 74.5625C501.98 74.9375 501.894 75.2812 501.722 75.5938C501.555 75.9062 501.313 76.1797 500.995 76.4141C500.678 76.6484 500.297 76.8307 499.855 76.9609C499.412 77.0911 498.912 77.1562 498.355 77.1562C497.558 77.1562 496.883 77.013 496.331 76.7266C495.779 76.4401 495.363 76.0807 495.081 75.6484C494.805 75.2109 494.667 74.763 494.667 74.3047H496.956C496.967 74.5859 497.037 74.8151 497.167 74.9922C497.303 75.1693 497.477 75.2995 497.691 75.3828C497.904 75.4609 498.144 75.5 498.409 75.5C498.675 75.5 498.896 75.4635 499.073 75.3906C499.251 75.3177 499.386 75.2188 499.48 75.0938C499.573 74.9635 499.62 74.8151 499.62 74.6484ZM506.209 68.5469V77H503.764V68.5469H506.209ZM503.616 66.3594C503.616 66.0052 503.741 65.7161 503.991 65.4922C504.241 65.263 504.569 65.1484 504.975 65.1484C505.381 65.1484 505.709 65.263 505.959 65.4922C506.215 65.7161 506.342 66.0052 506.342 66.3594C506.342 66.7083 506.215 66.9974 505.959 67.2266C505.709 67.4505 505.381 67.5625 504.975 67.5625C504.569 67.5625 504.241 67.4505 503.991 67.2266C503.741 66.9974 503.616 66.7083 503.616 66.3594ZM507.916 72.8594V72.6953C507.916 72.0755 508.004 71.5052 508.181 70.9844C508.358 70.4583 508.619 70.0026 508.962 69.6172C509.306 69.2318 509.728 68.9323 510.228 68.7188C510.728 68.5 511.301 68.3906 511.947 68.3906C512.603 68.3906 513.181 68.5 513.681 68.7188C514.186 68.9323 514.611 69.2318 514.955 69.6172C515.298 70.0026 515.559 70.4583 515.736 70.9844C515.913 71.5052 516.002 72.0755 516.002 72.6953V72.8594C516.002 73.474 515.913 74.0443 515.736 74.5703C515.559 75.0911 515.298 75.5469 514.955 75.9375C514.611 76.3229 514.189 76.6224 513.689 76.8359C513.189 77.0495 512.614 77.1562 511.962 77.1562C511.317 77.1562 510.741 77.0495 510.236 76.8359C509.731 76.6224 509.306 76.3229 508.962 75.9375C508.619 75.5469 508.358 75.0911 508.181 74.5703C508.004 74.0443 507.916 73.474 507.916 72.8594ZM510.361 72.6953V72.8594C510.361 73.1927 510.387 73.5052 510.439 73.7969C510.496 74.0885 510.587 74.3438 510.712 74.5625C510.837 74.7812 511.002 74.9531 511.205 75.0781C511.413 75.1979 511.666 75.2578 511.962 75.2578C512.259 75.2578 512.509 75.1979 512.712 75.0781C512.916 74.9531 513.08 74.7812 513.205 74.5625C513.33 74.3438 513.418 74.0885 513.47 73.7969C513.528 73.5052 513.556 73.1927 513.556 72.8594V72.6953C513.556 72.3672 513.528 72.0599 513.47 71.7734C513.418 71.4818 513.33 71.224 513.205 71C513.08 70.776 512.913 70.6016 512.705 70.4766C512.502 70.3516 512.249 70.2891 511.947 70.2891C511.655 70.2891 511.408 70.3516 511.205 70.4766C511.002 70.6016 510.837 70.776 510.712 71C510.587 71.224 510.496 71.4818 510.439 71.7734C510.387 72.0599 510.361 72.3672 510.361 72.6953ZM519.973 70.3516V77H517.528V68.5469H519.825L519.973 70.3516ZM519.653 72.4766L519.044 72.4922C519.044 71.8568 519.122 71.2865 519.278 70.7812C519.434 70.276 519.656 69.8464 519.942 69.4922C520.234 69.1328 520.58 68.8594 520.981 68.6719C521.387 68.4844 521.835 68.3906 522.325 68.3906C522.721 68.3906 523.083 68.4479 523.411 68.5625C523.739 68.6771 524.02 68.862 524.255 69.1172C524.494 69.3672 524.677 69.7005 524.802 70.1172C524.927 70.5286 524.989 71.0365 524.989 71.6406V77H522.536V71.6328C522.536 71.2786 522.486 71.0052 522.387 70.8125C522.289 70.6198 522.143 70.4844 521.95 70.4062C521.762 70.3281 521.533 70.2891 521.262 70.2891C520.976 70.2891 520.731 70.3464 520.528 70.4609C520.325 70.5703 520.158 70.724 520.028 70.9219C519.898 71.1198 519.802 71.3516 519.739 71.6172C519.682 71.8828 519.653 72.1693 519.653 72.4766Z" fill="black"/>
</svg>
