<svg width="198" height="40" viewBox="0 0 198 40" fill="none" xmlns="http://www.w3.org/2000/svg">
<path d="M10.5838 17.2975L15.5157 12.4529L21.4346 9.43636L27.6468 8.34875L31.6493 14.1322L33.7848 19.2198L31.8684 23.3802L33.4931 24.8165L36.5498 29.5388L33.3712 33.5058L28.6898 35.924L23.1087 36.3521L20.6832 31.6314L18.9843 30.0248L11.5214 23.9405L10.5838 17.2975Z" fill="white"/>
<path d="M12.3255 16.2198C12.4886 16.1289 14.7412 13.9372 18.9859 12.1487C21.3423 11.1553 23.5355 10.8529 24.8999 10.9983C26.2642 11.1438 26.7009 11.6181 27.0469 12.2033C27.393 12.7884 32.4336 21.4396 32.4336 21.4396L27.4655 26.8975L21.6965 28.9058L16.0199 28.3223L11.5247 22.9372L10.7601 18.6115L12.3255 16.2198Z" fill="#6CC1E3"/>
<path d="M27.828 27.4297C27.828 27.4297 28.9831 26.8132 30.1003 26.8876C31.2175 26.962 31.9623 27.6347 32.2243 28.0082C32.4863 28.3818 34.2544 30.3438 34.2182 31.0727C34.1819 31.8016 29.6736 35.9124 29.6736 35.9124C29.6736 35.9124 27.7357 35.9686 26.2461 35.8182C24.7565 35.6694 24.3281 34.9586 23.8799 33.9504C23.4333 32.9421 23.2323 31.7058 23.7909 30.8644C24.3495 30.0231 27.828 27.4297 27.828 27.4297Z" fill="#6CC1E3"/>
<path d="M34.8839 24.9207C34.2726 24.1885 33.7205 23.762 33.3448 23.5257C33.096 23.3687 33.0384 23.0298 33.2246 22.8017L34.7372 20.9538C35.0882 20.3835 35.0981 18.9587 34.8114 18.3538L34.3335 17.3455C34.1786 17.0199 34.2149 16.6348 34.4274 16.3439L35.3486 15.0844C35.5957 14.7455 35.6205 14.2926 35.4112 13.9306L33.4981 10.6199C33.2031 10.1092 32.6396 9.81494 32.053 9.86783L30.0492 10.048L29.2665 8.37857C29.2665 8.37857 28.212 7.46948 27.6533 7.41989C27.0947 7.37196 25.8572 7.0546 22.1942 7.98022C19.7719 8.59179 18.4735 9.27775 17.872 9.67279C17.6248 9.83477 17.2936 9.76204 17.1387 9.50915L16.473 8.41989C16.389 8.28436 16.2127 8.23973 16.0759 8.32237L14.9307 9.01494C14.789 9.10089 14.7428 9.28766 14.8302 9.42981L15.5041 10.5306C15.6623 10.7901 15.5882 11.1306 15.3344 11.2976L12.8792 12.9191L10.5508 15.3042C10.5508 15.3042 8.44001 17.8116 8.51252 19.3934C8.5603 20.4447 9.01509 21.2364 9.31664 21.6513C9.46 21.8496 9.43693 22.1224 9.26886 22.2976L8.46473 23.1339C8.00335 23.6149 7.90942 24.3422 8.23569 24.924L10.1636 28.3753C10.3696 28.7455 10.7716 28.962 11.1935 28.9306L12.8825 28.805C13.2269 28.7786 13.5597 28.9389 13.7558 29.2232L14.5286 30.3439C14.9653 30.9769 15.7052 31.3306 16.4697 31.2695L19.238 31.053C19.4308 31.0381 19.5956 31.1901 19.5956 31.3852C19.5956 31.8463 19.6154 32.6728 19.7472 33.41C19.9416 34.5058 21.4692 36.8414 21.4692 36.8414L23.2405 37.2315L30.1547 35.4546L33.5755 32.8992L36.8991 28.0067C36.8991 28.0067 36.0011 26.2546 34.8855 24.9158L34.8839 24.9207ZM21.3489 28.048C18.7684 28.724 17.8028 28.0662 16.9838 27.61C16.1649 27.1538 14.3095 25.2926 13.0176 22.6992C12.5595 21.7802 12.1789 20.9703 11.879 20.3092C11.2446 18.9092 11.4637 17.2695 12.4541 16.0959C12.9352 15.524 13.5746 14.8777 14.4182 14.1934C17.2755 11.8761 20.8776 10.3422 23.5355 9.62981C25.0119 9.23477 26.0286 9.18188 26.6383 9.21494C27.0618 9.23642 27.4457 9.46948 27.6632 9.83312L32.9741 18.7505C33.2361 19.1918 33.2377 19.7406 32.9741 20.1819C32.4913 20.9951 31.5669 22.3257 30.1564 23.4463C27.9549 25.1984 23.9277 27.3703 21.3456 28.0463L21.3489 28.048ZM32.4155 32.8298C30.0674 34.7653 28.4245 35.362 27.2661 35.6959C26.2741 35.9819 25.2195 35.4513 24.8999 35.1488C24.4022 34.6761 23.6657 33.9439 23.8667 32.21C24.0661 30.4761 24.8636 30.0017 24.8636 30.0017C24.8636 30.0017 27.5017 28.1406 29.4132 26.7521C31.2587 25.4116 30.9967 24.562 31.9788 25.0645C32.8785 25.524 33.3976 25.9125 33.8903 26.5158C34.2775 26.9901 35.1377 28.4943 35.4853 29.1125C35.5826 29.2827 35.571 29.4926 35.459 29.6546C35.0998 30.1753 34.1687 31.3852 32.4155 32.8315V32.8298Z" fill="#0F3D4C"/>
<path d="M18.7961 20.6679C18.3789 19.943 17.4547 19.6946 16.732 20.1131C16.0093 20.5317 15.7617 21.4587 16.1789 22.1836L17.4955 24.4711C17.9128 25.196 18.8369 25.4444 19.5596 25.0258C20.2824 24.6073 20.53 23.6803 20.1127 22.9554L18.7961 20.6679Z" fill="#0F3D4C"/>
<path d="M26.8747 15.8863C26.4574 15.1613 25.5333 14.913 24.8105 15.3315C24.0878 15.7501 23.8402 16.677 24.2575 17.402L25.5741 19.6894C25.9913 20.4144 26.9155 20.6628 27.6382 20.2442C28.3609 19.8257 28.6085 18.8987 28.1912 18.1737L26.8747 15.8863Z" fill="#0F3D4C"/>
<path d="M21.835 0.623169C20.3322 0.623169 18.8706 0.800028 17.4683 1.13391C17.8391 1.69424 18.1109 2.3273 18.2576 3.00664C19.4111 2.75705 20.6074 2.62317 21.835 2.62317C31.1665 2.62317 38.7579 10.238 38.7579 19.5984C38.7579 28.9587 31.1665 36.5736 21.835 36.5736C12.5035 36.5736 4.91208 28.9587 4.91208 19.5984C4.91208 15.2661 6.53846 11.3091 9.21119 8.30747C8.70696 7.85457 8.28512 7.31077 7.97369 6.70086C4.83793 10.0893 2.91824 14.6232 2.91824 19.6C2.91824 30.0628 11.4044 38.5752 21.835 38.5752C32.2655 38.5752 40.7517 30.0628 40.7517 19.6C40.7517 9.13722 32.2655 0.623169 21.835 0.623169Z" fill="#0F3D4C"/>
<path d="M13.0967 8.51901C15.4419 8.51901 17.3431 6.61196 17.3431 4.2595C17.3431 1.90705 15.4419 0 13.0967 0C10.7515 0 8.85034 1.90705 8.85034 4.2595C8.85034 6.61196 10.7515 8.51901 13.0967 8.51901Z" fill="#0F3D4C"/>
<path fill-rule="evenodd" clip-rule="evenodd" d="M13.2401 3.60661C13.1626 3.69918 13.0868 3.79339 13.0127 3.88761C12.8726 4.06447 12.7325 4.24794 12.5842 4.42149C12.4508 4.58017 12.3305 4.75207 12.197 4.91075C12.0537 5.08265 11.8691 5.27438 11.6285 5.27604C11.2874 5.27769 11.0304 5.3124 10.775 5.29256C10.5179 5.27108 10.5525 5.09091 10.7008 4.95537C10.8491 4.82149 12.5051 3.42314 12.5051 3.42314L13.5466 2.57025C13.6372 2.49918 13.7278 2.42645 13.8201 2.35537C13.8811 2.30744 13.9404 2.25455 14.0079 2.21653C14.0854 2.1719 14.181 2.13389 14.2699 2.16033C14.3985 2.1967 14.443 2.34876 14.4627 2.46447C14.5023 2.69091 14.5352 2.91901 14.5682 3.14711C14.6127 3.44794 14.6539 3.75042 14.6967 4.05124C14.733 4.31901 14.7709 4.58678 14.8071 4.85455C14.8335 5.04794 14.8763 5.24132 14.8928 5.43637C14.8994 5.52397 14.8978 5.61488 14.873 5.70083C14.7659 6.0562 14.3194 5.90248 14.0722 5.81653C13.8695 5.7438 13.0308 5.50083 12.8199 5.43141C12.7441 5.40661 12.6732 5.34546 12.6502 5.26777C12.6188 5.16033 12.6699 5.05785 12.7227 4.96694C12.7869 4.8562 12.8561 4.74711 12.9204 4.63637C13.016 4.46942 13.1115 4.30248 13.2088 4.13554C13.2911 3.99174 13.3735 3.84794 13.4559 3.70579C13.5021 3.62645 13.5433 3.54546 13.5795 3.46116C13.591 3.43637 13.5976 3.41653 13.591 3.38843C13.5861 3.3686 13.5779 3.35207 13.5597 3.34215C13.4922 3.30909 13.4411 3.37686 13.4032 3.42314C13.3505 3.4843 13.2977 3.54711 13.2467 3.60992L13.2401 3.60661Z" fill="white"/>
<path d="M16.2039 8.69504L15.4715 7.42249L14.4711 8.00182L15.2036 9.27438L16.2039 8.69504Z" fill="#0F3D4C"/>
<path d="M58.5193 14.442H55.9575C55.0287 14.442 54.2497 14.1274 53.6155 13.4931C52.9813 12.8589 52.6667 12.1049 52.6667 11.226C52.6667 10.3471 52.9813 9.59303 53.6155 8.95882C54.2497 8.32461 55.0287 8.01001 55.9575 8.01001H67.6629C68.5918 8.01001 69.3708 8.32461 70.005 8.95882C70.6392 9.59303 70.9538 10.3471 70.9538 11.226C70.9538 12.1049 70.6392 12.8589 70.005 13.4931C69.3708 14.1274 68.5918 14.442 67.6629 14.442H65.1011V28.779C65.1011 29.6579 64.7865 30.412 64.1523 31.0462C63.5181 31.6804 62.7391 31.995 61.8102 31.995C60.8814 31.995 60.1024 31.6804 59.4682 31.0462C58.8339 30.412 58.5193 29.6579 58.5193 28.779V14.442Z" fill="#0F3D4C"/>
<path d="M85.221 16.784C86.1498 16.784 86.9288 17.0986 87.563 17.7328C88.1973 18.367 88.5119 19.1211 88.5119 20C88.5119 20.8789 88.1973 21.633 87.563 22.2672C86.9288 22.9014 86.1498 23.216 85.221 23.216H79.7328V25.558H88.1473C89.0762 25.558 89.8552 25.8727 90.4894 26.5069C91.1236 27.1411 91.4382 27.8951 91.4382 28.774C91.4382 29.6529 91.1236 30.407 90.4894 31.0412C89.8552 31.6754 89.0762 31.99 88.1473 31.99H76.4419C75.5131 31.99 74.7341 31.6754 74.0999 31.0412C73.4657 30.407 73.1511 29.6529 73.1511 28.774V11.216C73.1511 10.3371 73.4657 9.58302 74.0999 8.94881C74.7341 8.3146 75.5131 8 76.4419 8H88.1473C89.0762 8 89.8552 8.3146 90.4894 8.94881C91.1236 9.58302 91.4382 10.3371 91.4382 11.216C91.4382 12.0949 91.1236 12.8489 90.4894 13.4831C89.8552 14.1174 89.0762 14.432 88.1473 14.432H79.7328V16.774H85.221V16.784Z" fill="#0F3D4C"/>
<path d="M96.9213 32C95.9925 32 95.2135 31.6854 94.5792 31.0512C93.945 30.417 93.6304 29.663 93.6304 28.784V11.226C93.6304 10.3471 93.945 9.59303 94.5792 8.95882C95.2135 8.32461 95.9925 8.01001 96.9213 8.01001C97.8502 8.01001 98.6292 8.32461 99.2634 8.95882C99.8976 9.59303 100.212 10.3471 100.212 11.226V25.5631H108.627C109.556 25.5631 110.335 25.8777 110.969 26.5119C111.603 27.1461 111.918 27.9001 111.918 28.779C111.918 29.658 111.603 30.412 110.969 31.0462C110.335 31.6804 109.556 31.995 108.627 31.995H96.9213V32Z" fill="#0F3D4C"/>
<path d="M126.185 16.784C127.114 16.784 127.893 17.0986 128.527 17.7328C129.161 18.367 129.476 19.1211 129.476 20C129.476 20.8789 129.161 21.633 128.527 22.2672C127.893 22.9014 127.114 23.216 126.185 23.216H120.697V25.558H129.111C130.04 25.558 130.819 25.8727 131.453 26.5069C132.087 27.1411 132.402 27.8951 132.402 28.774C132.402 29.6529 132.087 30.407 131.453 31.0412C130.819 31.6754 130.04 31.99 129.111 31.99H117.406C116.477 31.99 115.698 31.6754 115.064 31.0412C114.429 30.407 114.115 29.6529 114.115 28.774V11.216C114.115 10.3371 114.429 9.58302 115.064 8.94881C115.698 8.3146 116.477 8 117.406 8H129.111C130.04 8 130.819 8.3146 131.453 8.94881C132.087 9.58302 132.402 10.3371 132.402 11.216C132.402 12.0949 132.087 12.8489 131.453 13.4831C130.819 14.1174 130.04 14.432 129.111 14.432H120.697V16.774H126.185V16.784Z" fill="#0F3D4C"/>
<path d="M142.255 23.221V28.779C142.255 29.6579 141.94 30.412 141.306 31.0462C140.672 31.6804 139.893 31.995 138.964 31.995C138.035 31.995 137.256 31.6804 136.622 31.0462C135.988 30.412 135.673 29.6579 135.673 28.779V11.221C135.673 10.3421 135.988 9.58803 136.622 8.95382C137.256 8.31962 138.035 8.005 138.964 8.005C139.893 8.005 140.672 8.31962 141.306 8.95382C141.94 9.58803 142.255 10.3421 142.255 11.221V16.779H147.373V11.221C147.373 10.3421 147.688 9.58803 148.322 8.95382C148.956 8.31962 149.735 8.005 150.664 8.005C151.593 8.005 152.372 8.31962 153.006 8.95382C153.64 9.58803 153.955 10.3421 153.955 11.221V28.779C153.955 29.6579 153.64 30.412 153.006 31.0462C152.372 31.6804 151.593 31.995 150.664 31.995C149.735 31.995 148.956 31.6804 148.322 31.0462C147.688 30.412 147.373 29.6579 147.373 28.779V23.221H142.255Z" fill="#0F3D4C"/>
<path d="M157.251 11.221C157.251 10.3421 157.566 9.58803 158.2 8.95382C158.834 8.31962 159.613 8.005 160.542 8.005C161.471 8.005 162.25 8.31962 162.884 8.95382C163.518 9.58803 163.833 10.3421 163.833 11.221V22.9264C163.833 23.6654 164.087 24.2897 164.592 24.799C165.101 25.3084 165.7 25.5581 166.39 25.5581C167.079 25.5581 167.683 25.3034 168.187 24.799C168.697 24.2897 168.946 23.6654 168.946 22.9264V11.221C168.946 10.3421 169.261 9.58803 169.895 8.95382C170.529 8.31962 171.308 8.005 172.237 8.005C173.166 8.005 173.945 8.31962 174.579 8.95382C175.214 9.58803 175.528 10.3421 175.528 11.221V22.9264C175.528 25.4232 174.639 27.5606 172.866 29.3333C171.089 31.1061 168.931 31.995 166.385 31.995C163.838 31.995 161.68 31.1061 159.903 29.3333C158.125 27.5606 157.241 25.4232 157.241 22.9264V11.221H157.251Z" fill="#0F3D4C"/>
<path d="M178.829 11.221C178.829 10.3421 179.144 9.58803 179.778 8.95382C180.412 8.31962 181.191 8.005 182.12 8.005H189.436C191.573 8.005 193.386 8.74908 194.879 10.2422C196.372 11.7353 197.116 13.5231 197.116 15.6105C197.116 17.3284 196.652 18.7915 195.728 20C196.657 21.2085 197.116 22.6717 197.116 24.3895C197.116 26.4769 196.372 28.2647 194.879 29.7578C193.386 31.2509 191.573 31.995 189.436 31.995H182.12C181.191 31.995 180.412 31.6804 179.778 31.0462C179.144 30.412 178.829 29.6579 178.829 28.779V11.221ZM189.436 16.779C189.72 16.779 189.97 16.6692 190.195 16.4445C190.419 16.2197 190.529 15.9401 190.529 15.6105C190.529 15.2809 190.419 15.0013 190.195 14.7765C189.97 14.5518 189.715 14.442 189.436 14.442H185.411V16.784H189.436V16.779ZM189.436 23.216H185.411V25.5581H189.436C189.72 25.5581 189.97 25.4482 190.195 25.2235C190.419 24.9988 190.529 24.7191 190.529 24.3895C190.529 24.0599 190.419 23.7803 190.195 23.5556C189.97 23.3309 189.715 23.221 189.436 23.221V23.216Z" fill="#0F3D4C"/>
</svg>
