<svg width="48" height="46" viewBox="0 0 48 46" fill="none" xmlns="http://www.w3.org/2000/svg">
<path d="M22.1611 1.29978C22.8531 -0.318301 25.1469 -0.318298 25.8389 1.29978L31.0681 13.527C31.3574 14.2034 31.9946 14.6664 32.7273 14.7325L45.972 15.9273C47.7247 16.0855 48.4335 18.267 47.1085 19.4251L37.0956 28.1768C36.5417 28.6609 36.2983 29.4101 36.4619 30.1273L39.4183 43.093C39.8096 44.8088 37.9539 46.1571 36.4429 45.2547L25.0254 38.4364C24.3938 38.0592 23.6062 38.0592 22.9746 38.4364L11.5571 45.2547C10.0461 46.1571 8.19043 44.8088 8.58167 43.093L11.5381 30.1273C11.7017 29.4101 11.4583 28.6609 10.9044 28.1768L0.891504 19.4251C-0.433542 18.267 0.275274 16.0855 2.028 15.9273L15.2727 14.7325C16.0054 14.6664 16.6426 14.2034 16.9319 13.527L22.1611 1.29978Z" fill="#F2DE28"/>
</svg>
