<svg width="135" height="140" viewBox="0 0 135 140" fill="none" xmlns="http://www.w3.org/2000/svg">
<g clip-path="url(#clip0_31_1199)">
<path d="M29.9756 48.8139L43.9437 35.1422L60.7073 26.6295L78.3016 23.5603L89.6375 39.8814L95.6859 54.2387L90.2582 65.9792L94.8598 70.0326L103.517 83.3591L94.5145 94.5538L81.2557 101.378L65.4489 102.586L58.5792 89.2643L53.7676 84.7304L32.6311 67.5604L29.9756 48.8139Z" fill="white"/>
<path d="M34.9086 45.7725C35.3706 45.516 41.7503 39.3309 53.7723 34.2839C60.446 31.4805 66.6576 30.6269 70.5218 31.0374C74.386 31.4479 75.6228 32.7866 76.6028 34.4378C77.5829 36.089 91.859 60.503 91.859 60.503L77.7882 75.9051L61.4493 81.5725L45.3718 79.9259L32.6404 64.729L30.475 52.522L34.9086 45.7725Z" fill="#6CC1E3"/>
<path d="M78.815 77.4071C78.815 77.4071 82.0865 75.6673 85.2506 75.8772C88.4148 76.0871 90.5243 77.9855 91.2663 79.0397C92.0083 80.0939 97.0159 85.6306 96.9133 87.6877C96.8106 89.7447 84.0419 101.345 84.0419 101.345C84.0419 101.345 78.5536 101.504 74.3347 101.079C70.1158 100.66 68.9024 98.6539 67.633 95.8086C66.3683 92.9632 65.7989 89.4742 67.381 87.1C68.9631 84.7257 78.815 77.4071 78.815 77.4071Z" fill="#6CC1E3"/>
<path d="M98.7987 70.3264C97.0673 68.26 95.5039 67.0566 94.4398 66.3896C93.7351 65.9465 93.5718 64.9902 94.0991 64.3465L98.3834 59.1316C99.3774 57.5224 99.4054 53.5016 98.5934 51.7944L97.24 48.9491C96.8013 48.0301 96.9039 46.9433 97.506 46.1224L100.115 42.568C100.815 41.6118 100.885 40.3337 100.292 39.3122L94.8738 29.9692C94.0384 28.5279 92.4424 27.6976 90.7809 27.8469L85.106 28.3553L82.8892 23.6442C82.8892 23.6442 79.9024 21.0787 78.3203 20.9388C76.7382 20.8035 73.2333 19.9079 62.8588 22.5201C55.9984 24.2459 52.3209 26.1817 50.6174 27.2965C49.9174 27.7536 48.9793 27.5484 48.5406 26.8347L46.6552 23.7608C46.4172 23.3783 45.9178 23.2524 45.5305 23.4856L42.287 25.44C41.8856 25.6826 41.7549 26.2097 42.0023 26.6108L43.9111 29.7174C44.3591 30.4497 44.1491 31.4106 43.4304 31.8817L36.4767 36.4576L29.8823 43.1884C29.8823 43.1884 23.904 50.2644 24.1093 54.7284C24.2447 57.695 25.5327 59.9293 26.3868 61.1C26.7928 61.6598 26.7275 62.4294 26.2514 62.9239L23.974 65.2841C22.6672 66.6415 22.4012 68.6938 23.3253 70.3357L28.7856 80.0752C29.3689 81.12 30.5077 81.7311 31.7024 81.6425L36.486 81.288C37.4614 81.2133 38.4041 81.6658 38.9595 82.4681L41.1482 85.6306C42.385 87.4171 44.4804 88.4153 46.6459 88.2427L54.4863 87.6317C55.0323 87.5897 55.499 88.0188 55.499 88.5692C55.499 89.8706 55.555 92.2029 55.9284 94.2832C56.4791 97.3758 60.8053 103.967 60.8053 103.967L65.8222 105.068L85.4046 100.053L95.0932 92.8419L104.506 79.035C104.506 79.035 101.963 74.0907 98.8034 70.3124L98.7987 70.3264ZM60.4646 79.1516C53.1562 81.0594 50.4214 79.2029 48.102 77.9155C45.7825 76.6281 40.5275 71.3759 36.8687 64.0573C35.5713 61.4639 34.4932 59.1783 33.6438 57.3125C31.8471 53.3617 32.4678 48.7345 35.2726 45.4227C36.6353 43.8088 38.4461 41.985 40.8356 40.0539C48.928 33.5143 59.1299 29.1856 66.6576 27.1752C70.8392 26.0604 73.7187 25.9111 75.4454 26.0044C76.6448 26.0651 77.7322 26.7228 78.3483 27.7489L93.3897 52.9139C94.1318 54.1593 94.1365 55.7079 93.3897 56.9533C92.0223 59.2482 89.4042 63.0032 85.4093 66.1657C79.1743 71.11 67.7684 77.2392 60.4553 79.147L60.4646 79.1516ZM91.8077 92.646C85.1573 98.1081 80.5044 99.792 77.2235 100.734C74.4141 101.541 71.4272 100.044 70.5218 99.1903C69.1124 97.8562 67.0263 95.7898 67.5957 90.8968C68.1604 86.0037 70.4192 84.665 70.4192 84.665C70.4192 84.665 77.8909 79.4128 83.3045 75.4947C88.5315 71.7118 87.7895 69.3142 90.5709 70.7322C93.1191 72.0289 94.5891 73.1251 95.9846 74.8276C97.0813 76.1663 99.5174 80.411 100.502 82.1555C100.777 82.636 100.745 83.2284 100.427 83.6855C99.4101 85.1548 96.7733 88.5692 91.8077 92.6507V92.646Z" fill="#0F3D4C"/>
<path d="M53.2347 58.3254C52.0529 56.2796 49.4356 55.5786 47.3887 56.7598C45.3418 57.9409 44.6405 60.5569 45.8223 62.6027L49.5511 69.0579C50.7329 71.1038 53.3503 71.8047 55.3971 70.6236C57.444 69.4424 58.1453 66.8264 56.9636 64.7806L53.2347 58.3254Z" fill="#0F3D4C"/>
<path d="M76.1148 44.8315C74.9331 42.7857 72.3157 42.0847 70.2688 43.2659C68.222 44.447 67.5207 47.063 68.7024 49.1088L72.4313 55.5641C73.6131 57.6099 76.2304 58.3108 78.2773 57.1297C80.3242 55.9485 81.0255 53.3325 79.8437 51.2867L76.1148 44.8315Z" fill="#0F3D4C"/>
<path d="M61.8414 1.75854C57.5851 1.75854 53.4456 2.25765 49.474 3.19987C50.5241 4.78113 51.2941 6.56763 51.7095 8.48474C54.9763 7.7804 58.3645 7.40258 61.8414 7.40258C88.2701 7.40258 109.771 28.8919 109.771 55.3069C109.771 81.7219 88.2701 103.211 61.8414 103.211C35.4126 103.211 13.9121 81.7219 13.9121 55.3069C13.9121 43.0813 18.5183 31.9145 26.0881 23.4438C24.66 22.1657 23.4653 20.6311 22.5832 18.9099C13.7021 28.4721 8.26512 41.2668 8.26512 55.3116C8.26512 84.8378 32.2998 108.86 61.8414 108.86C91.383 108.86 115.418 84.8378 115.418 55.3116C115.418 25.7853 91.383 1.75854 61.8414 1.75854Z" fill="#0F3D4C"/>
<path d="M37.0927 24.0408C43.7348 24.0408 49.1193 18.6591 49.1193 12.0204C49.1193 5.38171 43.7348 0 37.0927 0C30.4505 0 25.066 5.38171 25.066 12.0204C25.066 18.6591 30.4505 24.0408 37.0927 24.0408Z" fill="#0F3D4C"/>
<path fill-rule="evenodd" clip-rule="evenodd" d="M37.4987 10.1778C37.2794 10.439 37.0647 10.7049 36.8547 10.9708C36.458 11.4699 36.0613 11.9876 35.6413 12.4774C35.2632 12.9252 34.9226 13.4103 34.5445 13.8581C34.1385 14.3432 33.6158 14.8843 32.9344 14.889C31.9684 14.8936 31.2404 14.9916 30.517 14.9356C29.7889 14.875 29.887 14.3665 30.307 13.984C30.727 13.6062 35.4172 9.66006 35.4172 9.66006L38.3667 7.25318C38.6234 7.05261 38.8801 6.84737 39.1415 6.6468C39.3141 6.51153 39.4821 6.36227 39.6735 6.25498C39.8928 6.12904 40.1635 6.02176 40.4155 6.09639C40.7795 6.19901 40.9055 6.62814 40.9615 6.95466C41.0736 7.59369 41.1669 8.23739 41.2602 8.88109C41.3862 9.73003 41.5029 10.5836 41.6243 11.4326C41.7269 12.1882 41.8343 12.9439 41.9369 13.6995C42.0116 14.2453 42.1329 14.791 42.1796 15.3414C42.1983 15.5886 42.1936 15.8452 42.1236 16.0877C41.8203 17.0906 40.5555 16.6568 39.8555 16.4142C39.2815 16.209 36.906 15.5233 36.3086 15.3274C36.094 15.2574 35.8933 15.0849 35.8279 14.8656C35.7393 14.5624 35.8839 14.2732 36.0333 14.0167C36.2153 13.7042 36.4113 13.3963 36.5933 13.0838C36.864 12.6127 37.1347 12.1416 37.41 11.6705C37.6434 11.2646 37.8767 10.8588 38.1101 10.4577C38.2407 10.2338 38.3574 10.0052 38.4601 9.76734C38.4928 9.69738 38.5114 9.6414 38.4928 9.56211C38.4788 9.50613 38.4554 9.45949 38.4041 9.4315C38.2127 9.33821 38.0681 9.52945 37.9607 9.66006C37.8114 9.83265 37.662 10.0099 37.5174 10.1871L37.4987 10.1778Z" fill="white"/>
<path d="M45.893 24.5375L43.8186 20.9463L40.9853 22.5812L43.0598 26.1724L45.893 24.5375Z" fill="#0F3D4C"/>
<path d="M5.46963 123.6H3.0755C2.20745 123.6 1.47941 123.306 0.886715 122.713C0.294016 122.121 0 121.417 0 120.596C0 119.775 0.294016 119.07 0.886715 118.478C1.47941 117.886 2.20745 117.592 3.0755 117.592H14.0148C14.8828 117.592 15.6108 117.886 16.2035 118.478C16.7962 119.07 17.0903 119.775 17.0903 120.596C17.0903 121.417 16.7962 122.121 16.2035 122.713C15.6108 123.306 14.8828 123.6 14.0148 123.6H11.6206V136.991C11.6206 137.812 11.3266 138.517 10.7339 139.109C10.1412 139.701 9.41318 139.995 8.54513 139.995C7.67708 139.995 6.94904 139.701 6.35635 139.109C5.76365 138.517 5.46963 137.812 5.46963 136.991V123.6Z" fill="#0F3D4C"/>
<path d="M30.4237 125.787C31.2917 125.787 32.0197 126.081 32.6124 126.674C33.2051 127.266 33.4992 127.97 33.4992 128.791C33.4992 129.612 33.2051 130.317 32.6124 130.909C32.0197 131.501 31.2917 131.795 30.4237 131.795H25.2947V133.983H33.1585C34.0265 133.983 34.7546 134.277 35.3473 134.869C35.94 135.462 36.234 136.166 36.234 136.987C36.234 137.808 35.94 138.512 35.3473 139.104C34.7546 139.697 34.0265 139.991 33.1585 139.991H22.2192C21.3512 139.991 20.6231 139.697 20.0304 139.104C19.4377 138.512 19.1437 137.808 19.1437 136.987V120.586C19.1437 119.765 19.4377 119.061 20.0304 118.469C20.6231 117.876 21.3512 117.583 22.2192 117.583H33.1585C34.0265 117.583 34.7546 117.876 35.3473 118.469C35.94 119.061 36.234 119.765 36.234 120.586C36.234 121.407 35.94 122.112 35.3473 122.704C34.7546 123.297 34.0265 123.59 33.1585 123.59H25.2947V125.778H30.4237V125.787Z" fill="#0F3D4C"/>
<path d="M41.3582 140C40.4902 140 39.7622 139.706 39.1695 139.114C38.5768 138.521 38.2827 137.817 38.2827 136.996V120.596C38.2827 119.775 38.5768 119.07 39.1695 118.478C39.7622 117.886 40.4902 117.592 41.3582 117.592C42.2263 117.592 42.9543 117.886 43.547 118.478C44.1397 119.07 44.4337 119.775 44.4337 120.596V133.987H52.2975C53.1656 133.987 53.8936 134.281 54.4863 134.874C55.079 135.466 55.373 136.17 55.373 136.991C55.373 137.812 55.079 138.517 54.4863 139.109C53.8936 139.701 53.1656 139.995 52.2975 139.995H41.3582V140Z" fill="#0F3D4C"/>
<path d="M68.7064 125.787C69.5744 125.787 70.3025 126.081 70.8952 126.674C71.4879 127.266 71.7819 127.97 71.7819 128.791C71.7819 129.612 71.4879 130.317 70.8952 130.909C70.3025 131.501 69.5744 131.795 68.7064 131.795H63.5775V133.983H71.4412C72.3093 133.983 73.0373 134.277 73.63 134.869C74.2227 135.462 74.5167 136.166 74.5167 136.987C74.5167 137.808 74.2227 138.512 73.63 139.104C73.0373 139.697 72.3093 139.991 71.4412 139.991H60.502C59.6339 139.991 58.9059 139.697 58.3132 139.104C57.7205 138.512 57.4265 137.808 57.4265 136.987V120.586C57.4265 119.765 57.7205 119.061 58.3132 118.469C58.9059 117.876 59.6339 117.583 60.502 117.583H71.4412C72.3093 117.583 73.0373 117.876 73.63 118.469C74.2227 119.061 74.5167 119.765 74.5167 120.586C74.5167 121.407 74.2227 122.112 73.63 122.704C73.0373 123.297 72.3093 123.59 71.4412 123.59H63.5775V125.778H68.7064V125.787Z" fill="#0F3D4C"/>
<path d="M83.7245 131.8V136.991C83.7245 137.812 83.4305 138.517 82.8378 139.109C82.2451 139.702 81.5171 139.995 80.649 139.995C79.781 139.995 79.053 139.702 78.4603 139.109C77.8676 138.517 77.5735 137.812 77.5735 136.991V120.591C77.5735 119.77 77.8676 119.066 78.4603 118.473C79.053 117.881 79.781 117.587 80.649 117.587C81.5171 117.587 82.2451 117.881 82.8378 118.473C83.4305 119.066 83.7245 119.77 83.7245 120.591V125.783H88.5081V120.591C88.5081 119.77 88.8022 119.066 89.3949 118.473C89.9876 117.881 90.7156 117.587 91.5836 117.587C92.4517 117.587 93.1797 117.881 93.7724 118.473C94.3651 119.066 94.6591 119.77 94.6591 120.591V136.991C94.6591 137.812 94.3651 138.517 93.7724 139.109C93.1797 139.702 92.4517 139.995 91.5836 139.995C90.7156 139.995 89.9876 139.702 89.3949 139.109C88.8022 138.517 88.5081 137.812 88.5081 136.991V131.8H83.7245Z" fill="#0F3D4C"/>
<path d="M97.7393 120.591C97.7393 119.77 98.0333 119.066 98.626 118.473C99.2187 117.881 99.9468 117.587 100.815 117.587C101.683 117.587 102.411 117.881 103.004 118.473C103.596 119.066 103.89 119.77 103.89 120.591V131.525C103.89 132.215 104.128 132.798 104.6 133.274C105.076 133.75 105.636 133.983 106.28 133.983C106.924 133.983 107.489 133.745 107.96 133.274C108.436 132.798 108.669 132.215 108.669 131.525V120.591C108.669 119.77 108.963 119.066 109.556 118.473C110.149 117.881 110.877 117.587 111.745 117.587C112.613 117.587 113.341 117.881 113.934 118.473C114.526 119.066 114.82 119.77 114.82 120.591V131.525C114.82 133.857 113.99 135.853 112.333 137.509C110.671 139.165 108.655 139.995 106.275 139.995C103.895 139.995 101.879 139.165 100.217 137.509C98.556 135.853 97.73 133.857 97.73 131.525V120.591H97.7393Z" fill="#0F3D4C"/>
<path d="M117.905 120.591C117.905 119.77 118.199 119.066 118.792 118.473C119.385 117.881 120.113 117.587 120.981 117.587H127.818C129.815 117.587 131.509 118.282 132.905 119.677C134.3 121.072 134.995 122.741 134.995 124.691C134.995 126.296 134.561 127.662 133.698 128.791C134.566 129.92 134.995 131.287 134.995 132.891C134.995 134.841 134.3 136.511 132.905 137.906C131.509 139.3 129.815 139.995 127.818 139.995H120.981C120.113 139.995 119.385 139.702 118.792 139.109C118.199 138.517 117.905 137.812 117.905 136.991V120.591ZM127.818 125.783C128.084 125.783 128.317 125.68 128.527 125.47C128.737 125.26 128.84 124.999 128.84 124.691C128.84 124.383 128.737 124.122 128.527 123.912C128.317 123.702 128.079 123.6 127.818 123.6H124.056V125.787H127.818V125.783ZM127.818 131.795H124.056V133.983H127.818C128.084 133.983 128.317 133.88 128.527 133.67C128.737 133.46 128.84 133.199 128.84 132.891C128.84 132.583 128.737 132.322 128.527 132.112C128.317 131.902 128.079 131.8 127.818 131.8V131.795Z" fill="#0F3D4C"/>
</g>
<defs>
<clipPath id="clip0_31_1199">
<rect width="135" height="140" fill="white"/>
</clipPath>
</defs>
</svg>
