<svg width="37" height="36" viewBox="0 0 37 36" fill="none" xmlns="http://www.w3.org/2000/svg">
<g clip-path="url(#clip0_31_1408)">
<path fill-rule="evenodd" clip-rule="evenodd" d="M36.5 18C36.5 27.9411 28.4411 36 18.5 36C8.55888 36 0.5 27.9411 0.5 18C0.5 8.05888 8.55888 0 18.5 0C28.4411 0 36.5 8.05888 36.5 18ZM19.145 13.2884C17.3943 14.0166 13.8952 15.5238 8.64784 17.81C7.79575 18.1488 7.34939 18.4803 7.30875 18.8045C7.24008 19.3522 7.92607 19.5679 8.8602 19.8617C8.98727 19.9016 9.11893 19.943 9.25391 19.9869C10.173 20.2857 11.4092 20.6352 12.0519 20.649C12.6349 20.6616 13.2856 20.4213 14.004 19.928C18.9067 16.6185 21.4376 14.9457 21.5965 14.9097C21.7086 14.8842 21.8639 14.8522 21.9691 14.9458C22.0744 15.0393 22.0641 15.2165 22.0529 15.264C21.9849 15.5537 19.2922 18.0571 17.8987 19.3527C17.4643 19.7565 17.1561 20.043 17.0931 20.1085C16.952 20.255 16.8082 20.3937 16.67 20.5269C15.8162 21.35 15.1759 21.9672 16.7054 22.9752C17.4405 23.4596 18.0286 23.8601 18.6154 24.2597C19.2563 24.6961 19.8954 25.1314 20.7224 25.6735C20.9331 25.8116 21.1343 25.9551 21.3303 26.0948C22.0761 26.6265 22.7461 27.1041 23.5739 27.0279C24.0549 26.9837 24.5517 26.5314 24.804 25.1825C25.4003 21.9947 26.5724 15.0877 26.8433 12.2415C26.8671 11.9921 26.8372 11.673 26.8132 11.5329C26.7893 11.3928 26.7392 11.1932 26.557 11.0454C26.3414 10.8704 26.0085 10.8335 25.8595 10.8361C25.1825 10.8481 24.1438 11.2092 19.145 13.2884Z" fill="black"/>
</g>
<defs>
<clipPath id="clip0_31_1408">
<rect width="36" height="36" fill="white" transform="translate(0.5)"/>
</clipPath>
</defs>
</svg>
